<?xml version="1.0" encoding="UTF-8"?>
<svg version="1.1" xmlns="http://www.w3.org/2000/svg" width="1024" height="1024">
<path d="M0 0 C5.43640397 4.02597404 9.26842157 7.8677647 11.44140625 14.38671875 C12.29082276 23.9000096 10.58578557 31.7706687 7.44140625 40.69921875 C6.8690625 42.39981445 6.8690625 42.39981445 6.28515625 44.13476562 C5.35449513 46.8918492 4.40661634 49.64158166 3.44140625 52.38671875 C-3.23092989 51.83478923 -9.18010015 50.52466696 -15.5546875 48.515625 C-16.46944351 48.23323471 -17.38419952 47.95084442 -18.32667542 47.65989685 C-20.24301684 47.06618877 -22.15812358 46.46848184 -24.07202148 45.86694336 C-27.00890326 44.94519847 -29.95031154 44.03915586 -32.89257812 43.13476562 C-34.75940142 42.55430712 -36.6259483 41.97295869 -38.4921875 41.390625 C-39.37233017 41.11972549 -40.25247284 40.84882599 -41.1592865 40.56971741 C-41.97095779 40.31282639 -42.78262909 40.05593536 -43.61889648 39.79125977 C-44.33343491 39.56777359 -45.04797333 39.34428741 -45.78416443 39.11402893 C-47.55859375 38.38671875 -47.55859375 38.38671875 -49.55859375 36.38671875 C-49.38205909 26.30217644 -43.7250752 8.67956134 -36.55859375 1.38671875 C-24.66418012 -7.38371349 -12.70779462 -8.01270103 0 0 Z M-30.24609375 14.13671875 C-32.94828449 18.76904574 -34.55859375 23.00295137 -34.55859375 28.38671875 C-33.65149658 28.64364502 -33.65149658 28.64364502 -32.72607422 28.90576172 C-29.96150999 29.68966362 -27.19754921 30.47567321 -24.43359375 31.26171875 C-23.48226562 31.53113281 -22.5309375 31.80054688 -21.55078125 32.078125 C-17.69093836 33.17710804 -13.85984971 34.28450691 -10.05859375 35.57421875 C-7.41949863 36.43192466 -5.3152711 36.54887624 -2.55859375 36.38671875 C-0.17054148 30.86434788 0.40431466 25.30172755 -0.55859375 19.38671875 C-3.06396717 14.37597192 -7.43673835 11.27035157 -12.48046875 9.046875 C-19.73838596 6.74125844 -24.99610962 8.69229076 -30.24609375 14.13671875 Z " fill="#000000" transform="translate(196.55859375,377.61328125)"/>
<path d="M0 0 C8.21136744 0.50229109 16.12720329 1.94514129 24.1875 3.5546875 C25.88519531 3.89330811 25.88519531 3.89330811 27.6171875 4.23876953 C35.80338816 5.92057566 35.80338816 5.92057566 36.9375 7.0546875 C37.2367126 14.98382136 37.2367126 14.98382136 35.9375 18.0546875 C34.9475 18.3846875 33.9575 18.7146875 32.9375 19.0546875 C33.4634375 20.01375 33.4634375 20.01375 34 20.9921875 C35.72286931 26.62022725 34.80207571 31.38516199 32.125 36.5546875 C29.96904521 39.01863583 29.14344602 39.82569136 25.9375 40.0546875 C26.4325 41.0446875 26.9275 42.0346875 27.4375 43.0546875 C29.6797031 48.33988053 29.75077634 52.82887856 27.75 58.3046875 C25.59645209 61.5721395 24.42847638 63.20233269 20.9375 65.0546875 C12.32129388 65.97399871 4.45365898 64.32022737 -3.8125 62.0546875 C-5.44832031 61.62542969 -5.44832031 61.62542969 -7.1171875 61.1875 C-9.7693846 60.4895534 -12.417285 59.77856002 -15.0625 59.0546875 C-15.34821429 50.48325893 -15.34821429 50.48325893 -13.0625 47.0546875 C-7.36670251 47.42755009 -1.98333257 48.24528959 3.5625 49.6171875 C8.54416422 50.83165239 12.82934315 51.35516731 17.9375 51.0546875 C18.35463614 46.71348695 18.35463614 46.71348695 16.375 42.984375 C13.25996939 40.5183091 10.54111129 39.85798658 6.6875 38.9296875 C6.02161865 38.76500977 5.3557373 38.60033203 4.66967773 38.43066406 C2.76172586 37.96059908 0.84968952 37.50720565 -1.0625 37.0546875 C-2.70887893 36.64018191 -4.35486275 36.22409412 -6 35.8046875 C-7.010625 35.5571875 -8.02125 35.3096875 -9.0625 35.0546875 C-9.24085515 30.50663115 -9.06035435 27.1752621 -7.0625 23.0546875 C-0.2120067 23.50313966 6.21203329 24.72264003 12.859375 26.43359375 C16.70386192 27.20932144 20.34356704 27.85165398 23.9375 26.0546875 C24.10431109 23.13816576 24.10431109 23.13816576 23.9375 20.0546875 C21.43796133 17.55514883 19.73952522 17.36284913 16.30859375 16.58203125 C15.19162109 16.32228516 14.07464844 16.06253906 12.92382812 15.79492188 C11.75271484 15.53001953 10.58160156 15.26511719 9.375 14.9921875 C7.06048194 14.46275578 4.74663774 13.9303664 2.43359375 13.39453125 C1.40419678 13.16113037 0.3747998 12.92772949 -0.68579102 12.68725586 C-3.0625 12.0546875 -3.0625 12.0546875 -4.0625 11.0546875 C-3.99871032 9.38455767 -3.86221885 7.71687765 -3.6875 6.0546875 C-3.59726562 5.1471875 -3.50703125 4.2396875 -3.4140625 3.3046875 C-2.90976019 0.07715273 -2.90976019 0.07715273 0 0 Z " fill="#000000" transform="translate(841.0625,552.9453125)"/>
<path d="M0 0 C1.51400391 0.01740234 1.51400391 0.01740234 3.05859375 0.03515625 C4.07050781 0.04417969 5.08242188 0.05320312 6.125 0.0625 C7.29869141 0.07990234 7.29869141 0.07990234 8.49609375 0.09765625 C8.49609375 1.08765625 8.49609375 2.07765625 8.49609375 3.09765625 C9.27984375 2.60265625 10.06359375 2.10765625 10.87109375 1.59765625 C15.5406701 -0.33458224 19.50422742 -0.67219326 24.49609375 0.09765625 C26.82599317 1.20053897 28.46231667 2.47063458 30.49609375 4.09765625 C32.68921819 4.27235539 32.68921819 4.27235539 34.93359375 2.59765625 C40.65153519 0.19010196 46.69073329 -0.01279893 52.49609375 2.28515625 C55.65274509 5.14587152 57.16046509 8.09077027 58.49609375 12.09765625 C58.59444644 14.5680444 58.63732668 17.00293223 58.62109375 19.47265625 C58.61916016 20.17712891 58.61722656 20.88160156 58.61523438 21.60742188 C58.56239081 28.13066632 58.11873775 34.6043688 57.49609375 41.09765625 C52.835424 42.368748 50.77880507 41.8523293 45.49609375 41.09765625 C45.16609375 31.52765625 44.83609375 21.95765625 44.49609375 12.09765625 C36.97847566 12.2059806 36.97847566 12.2059806 34.49609375 15.09765625 C34.04757215 17.69702609 34.04757215 17.69702609 33.8984375 20.7265625 C33.81916016 21.84353516 33.73988281 22.96050781 33.65820312 24.11132812 C33.54702148 25.86799805 33.54702148 25.86799805 33.43359375 27.66015625 C33.27999954 29.97422443 33.12265631 32.28804791 32.9609375 34.6015625 C32.89511475 35.63095947 32.82929199 36.66035645 32.76147461 37.72094727 C32.49609375 40.09765625 32.49609375 40.09765625 31.49609375 41.09765625 C29.64321873 41.16992127 27.78775497 41.18146845 25.93359375 41.16015625 C24.92167969 41.15113281 23.90976562 41.14210938 22.8671875 41.1328125 C21.69349609 41.11541016 21.69349609 41.11541016 20.49609375 41.09765625 C19.14239672 38.39026219 19.41774606 36.31154261 19.46875 33.28515625 C19.48711914 31.54878906 19.48711914 31.54878906 19.50585938 29.77734375 C19.54101647 27.32415967 19.58007927 24.87102846 19.62304688 22.41796875 C19.63400391 21.26039063 19.64496094 20.1028125 19.65625 18.91015625 C19.67308838 17.84410156 19.68992676 16.77804687 19.70727539 15.6796875 C19.76297777 12.93313196 19.76297777 12.93313196 17.49609375 11.09765625 C14.05444054 11.45064632 12.42736837 12.14347317 9.49609375 14.09765625 C8.89325567 16.70506812 8.89325567 16.70506812 8.765625 19.76171875 C8.68505859 20.88320313 8.60449219 22.0046875 8.52148438 23.16015625 C8.45123047 24.33578125 8.38097656 25.51140625 8.30859375 26.72265625 C8.22673828 27.90601563 8.14488281 29.089375 8.06054688 30.30859375 C7.85976321 33.23767305 7.6721857 36.16700564 7.49609375 39.09765625 C3.13279493 39.92264973 -0.14089371 40.03258751 -4.50390625 39.09765625 C-4.60935373 29.39648843 -4.52957639 19.72745278 -4.06640625 10.03515625 C-4.02717041 9.16084961 -3.98793457 8.28654297 -3.94750977 7.38574219 C-3.57102301 0.13927547 -3.57102301 0.13927547 0 0 Z " fill="#000000" transform="translate(475.50390625,841.90234375)"/>
<path d="M0 0 C0.57438961 1.27075612 1.14855871 2.54161191 1.72265625 3.8125 C2.09334229 4.63306885 2.46402832 5.4536377 2.84594727 6.29907227 C3.66313952 8.11336043 4.47738851 9.92897693 5.28881836 11.74584961 C7.19892126 16.02209296 9.12244377 20.28490091 11.15625 24.50390625 C14.65161028 31.86100586 17.76696405 38.68233994 16 47 C13.00627351 53.611146 6.69375516 58.04272298 0.125 60.875 C-4.5146575 62.4554411 -9.15738543 62.26793154 -14 62 C-15.1577506 58.52674819 -15.06866652 55.63932552 -15 52 C-14.34773438 51.89042969 -13.69546875 51.78085938 -13.0234375 51.66796875 C-7.91801551 50.74176388 -3.46512561 49.79070351 1 47 C3.33391203 44.21885944 3.33391203 44.21885944 2.625 41.3125 C2.41875 40.549375 2.2125 39.78625 2 39 C1.61070312 39.40992188 1.22140625 39.81984375 0.8203125 40.2421875 C-3.95521244 44.84165622 -8.32777494 46.82656296 -15 47 C-19.39940252 46.4978174 -22.6531481 45.33819974 -25.82421875 42.1875 C-31.14696757 35.38262983 -33.08666231 28.61670994 -33 20 C-31.93199342 14.84277903 -28.9475667 11.36987401 -25 8 C-21.8173269 6.03882191 -19.4626817 5.77729785 -15.75 5.875 C-14.85796875 5.89304688 -13.9659375 5.91109375 -13.046875 5.9296875 C-12.03367187 5.96449219 -12.03367187 5.96449219 -11 6 C-10.88140625 5.36578125 -10.7628125 4.7315625 -10.640625 4.078125 C-10 2 -10 2 -7.75 0.75 C-5.01240462 0.00338308 -2.81703322 -0.05671879 0 0 Z M-18 17 C-20.50304378 20.75456567 -20.45280074 22.54745934 -20 27 C-17.97333762 30.70390021 -16.51955484 32.65363011 -13 35 C-9.35366038 34.86977358 -6.91558141 34.71529798 -4 32.4375 C-2.51209484 28.81073118 -2.96418483 25.67115444 -4 22 C-6.27476062 17.50558412 -6.27476062 17.50558412 -10.4375 15 C-13.47793925 15 -15.32900661 15.55621979 -18 17 Z " fill="#000000" transform="translate(380,168)"/>
<path d="M0 0 C4.80574304 3.24108252 7.77300816 5.95529779 9.28125 11.66357422 C10.09831915 15.98559503 10.16856984 20.36312861 10.3125 24.75 C10.37050781 26.2050293 10.37050781 26.2050293 10.4296875 27.68945312 C10.52325076 30.06362076 10.60899208 32.43779492 10.6875 34.8125 C7.23092396 36.26767391 3.83162746 37.37278659 0.1953125 38.28515625 C-0.83980469 38.54490234 -1.87492187 38.80464844 -2.94140625 39.07226562 C-4.01261719 39.33716797 -5.08382812 39.60207031 -6.1875 39.875 C-7.25097656 40.14376953 -8.31445312 40.41253906 -9.41015625 40.68945312 C-28.33898507 45.40402478 -28.33898507 45.40402478 -36.4375 42.8125 C-41.72048048 39.13738314 -45.15963907 34.54435665 -46.6875 28.25 C-47.73168055 22.04884611 -47.8288472 16.68397679 -45.3125 10.8125 C-42.09798731 9.20524365 -38.87637464 9.75501815 -35.3125 9.8125 C-34.1875 14.5625 -34.1875 14.5625 -35.3125 16.8125 C-35.71704244 22.07155171 -34.97416853 25.26548292 -32.3125 29.8125 C-30.3325 29.8125 -28.3525 29.8125 -26.3125 29.8125 C-26.9725 28.843125 -27.6325 27.87375 -28.3125 26.875 C-30.78367785 22.53065176 -31.04687126 18.71129364 -30.3125 13.8125 C-28.00541659 7.49837698 -24.08241332 3.49446701 -18.125 0.5 C-12.00190087 -2.01047064 -6.22905837 -2.23305866 0 0 Z M-19.3125 16.8125 C-19.92779002 20.76793587 -19.59749668 22.38040826 -17.375 25.75 C-13.64592159 28.26142016 -11.79496356 28.29493917 -7.47265625 27.515625 C-3.96861502 26.37506909 -2.35503902 24.84336436 -0.3125 21.8125 C0.43795506 18.22706334 0.43795506 18.22706334 -0.3125 14.8125 C-2.58822031 11.99060682 -4.08732676 11.83751925 -7.6875 11.4375 C-12.52067181 11.93748329 -15.87003812 13.37003812 -19.3125 16.8125 Z " fill="#000000" transform="translate(182.3125,573.1875)"/>
<path d="M0 0 C0 0.66 0 1.32 0 2 C0.66 2 1.32 2 2 2 C4 5 4 5 3.81811523 6.98754883 C2.85973135 9.34504163 1.787661 10.49092089 -0.08984375 12.19921875 C-0.70923828 12.76833984 -1.32863281 13.33746094 -1.96679688 13.92382812 C-2.61712891 14.50583984 -3.26746094 15.08785156 -3.9375 15.6875 C-4.58396484 16.28111328 -5.23042969 16.87472656 -5.89648438 17.48632812 C-10.67353429 21.83676715 -10.67353429 21.83676715 -13 23 C-13.33 23.99 -13.66 24.98 -14 26 C-13.34 26 -12.68 26 -12 26 C-10.375 28 -10.375 28 -9 30 C-4.19531338 27.92627912 -0.58882955 24.37227812 3.34375 20.99609375 C5.73430349 19.19966311 7.09160321 18.3909873 10 18 C13.61139896 21.87564767 13.61139896 21.87564767 15 24 C14.8125 26.375 14.8125 26.375 14 28 C13.34 28 12.68 28 12 28 C12 28.66 12 29.32 12 30 C11.34 30 10.68 30 10 30 C10 30.66 10 31.32 10 32 C8.03125 33.7265625 8.03125 33.7265625 5.5 35.625 C4.6646875 36.25664062 3.829375 36.88828125 2.96875 37.5390625 C2.3190625 38.02117187 1.669375 38.50328125 1 39 C1.74354485 42.34595183 2.68364903 44.41637776 5 47 C5.99 47.33 6.98 47.66 8 48 C8 47.34 8 46.68 8 46 C9.63103592 44.49873909 11.33217645 43.07315614 13.0625 41.6875 C14.06023437 40.88828125 15.05796875 40.0890625 16.0859375 39.265625 C19.33101762 36.74264046 22.61549164 34.3315502 26 32 C29.64468616 35.2708722 31.29296777 37.16454967 32 42 C24.97881094 48.13051191 17.95418892 54.25988423 10.8125 60.25 C9.97332031 60.95640625 9.13414062 61.6628125 8.26953125 62.390625 C6.09223081 63.93459709 4.60991517 64.59201326 2 65 C-4.32373155 58.27576545 -10.51597652 51.55302388 -16.19921875 44.26953125 C-17.94338772 42.07134867 -19.75826564 39.96948409 -21.625 37.875 C-23.96895514 35.20699576 -26.27998574 32.52246021 -28.5 29.75 C-29.25796875 28.81414062 -29.25796875 28.81414062 -30.03125 27.859375 C-31 26 -31 26 -30.76513672 24.08374023 C-29.84030904 21.56510454 -28.7563363 20.53900179 -26.7265625 18.80078125 C-26.0665625 18.23166016 -25.4065625 17.66253906 -24.7265625 17.07617188 C-24.03304688 16.49416016 -23.33953125 15.91214844 -22.625 15.3125 C-21.93921875 14.71888672 -21.2534375 14.12527344 -20.546875 13.51367188 C-15.42025207 9.14008402 -15.42025207 9.14008402 -12 8 C-12 7.34 -12 6.68 -12 6 C-10.390625 4.4921875 -10.390625 4.4921875 -8.25 2.875 C-7.55390625 2.33617187 -6.8578125 1.79734375 -6.140625 1.2421875 C-4 0 -4 0 0 0 Z " fill="#000000" transform="translate(286,206)"/>
<path d="M0 0 C6.66536278 -0.31551145 12.34443279 0.82230075 18.7734375 2.51953125 C19.77839264 2.77876877 20.78334778 3.03800629 21.8187561 3.30509949 C23.92942897 3.85258958 26.03882339 4.40502982 28.14697266 4.9621582 C31.38182307 5.81429736 34.62201448 6.64334907 37.86328125 7.47070312 C39.9170264 8.00643533 41.97042505 8.54349802 44.0234375 9.08203125 C44.99421234 9.32903275 45.96498718 9.57603424 46.96517944 9.83052063 C47.86016144 10.07054306 48.75514343 10.31056549 49.67724609 10.55786133 C50.46586029 10.7643782 51.25447449 10.97089508 52.06698608 11.18367004 C54 12 54 12 56 15 C56.5546875 17.55859375 56.5546875 17.55859375 56.875 20.4375 C56.99617188 21.38496094 57.11734375 22.33242188 57.2421875 23.30859375 C57 26 57 26 55.38671875 28.10546875 C52.67420433 30.25861031 49.90131875 32.08158355 46.9375 33.875 C46.3602417 34.22449707 45.7829834 34.57399414 45.18823242 34.93408203 C40.91071752 37.50400498 36.57328223 39.9386904 32.16796875 42.28125 C29.58351314 43.68342074 27.03437174 45.12410257 24.48828125 46.59375 C23.68737061 47.05152832 22.88645996 47.50930664 22.0612793 47.98095703 C20.46292958 48.89553533 18.86914103 49.81814131 17.28051758 50.74951172 C16.5408374 51.16990723 15.80115723 51.59030273 15.0390625 52.0234375 C14.38115723 52.40419434 13.72325195 52.78495117 13.04541016 53.17724609 C11 54 11 54 6 54 C5.67 50.04 5.34 46.08 5 42 C6.485 41.175 7.97 40.35 9.5 39.5 C11.99439174 37.90008609 11.99439174 37.90008609 14 36 C14.57391024 32.72871166 14.49816911 31.16693219 14 28 C13.82324798 25.66740896 13.65712022 23.3339956 13.5 21 C13.335 19.02 13.17 17.04 13 15 C7.06 13.515 7.06 13.515 1 12 C0.67 8.04 0.34 4.08 0 0 Z M24 18 C24.66 21.96 25.32 25.92 26 30 C29.52892447 28.58843021 32.54862203 27.22615467 35.8125 25.375 C36.60269531 24.92898438 37.39289063 24.48296875 38.20703125 24.0234375 C38.79871094 23.68570313 39.39039063 23.34796875 40 23 C40 22.34 40 21.68 40 21 C38.08487728 20.49411853 36.16783078 19.99551609 34.25 19.5 C33.18265625 19.2215625 32.1153125 18.943125 31.015625 18.65625 C27.86294698 17.85824011 27.86294698 17.85824011 24 18 Z " fill="#000000" transform="translate(140,520)"/>
<path d="M0 0 C2.75291433 1.13799718 5.48812193 2.30401787 8.21484375 3.50390625 C8.88161133 3.79507324 9.54837891 4.08624023 10.23535156 4.38623047 C12.46513523 5.36795606 14.68452828 6.37045831 16.90234375 7.37890625 C17.61463135 7.69400146 18.32691895 8.00909668 19.06079102 8.33374023 C25.38350743 11.26428076 31.41852405 14.85894159 34.21484375 21.50390625 C35.19603826 28.1553722 34.61215053 33.41308092 30.65234375 38.9140625 C28.74561193 41.02286644 26.79047774 42.32050685 24.21484375 43.50390625 C23.22484375 43.99890625 23.22484375 43.99890625 22.21484375 44.50390625 C14.07268326 45.8580761 7.62432182 43.00460821 0.33984375 39.81640625 C-2.5275775 38.37482876 -2.5275775 38.37482876 -4.78515625 38.50390625 C-5.26726563 39.50292969 -5.749375 40.50195312 -6.24609375 41.53125 C-6.88379714 42.83479076 -7.52183536 44.13816776 -8.16015625 45.44140625 C-8.47726562 46.10076172 -8.794375 46.76011719 -9.12109375 47.43945312 C-11.55859375 52.390625 -11.55859375 52.390625 -13.78515625 53.50390625 C-16.16796875 52.5078125 -16.16796875 52.5078125 -18.91015625 51.06640625 C-19.82023438 50.59332031 -20.7303125 50.12023437 -21.66796875 49.6328125 C-22.36664062 49.26027344 -23.0653125 48.88773438 -23.78515625 48.50390625 C-23.12541569 44.32147391 -21.74616446 40.78415782 -20.0546875 36.91015625 C-19.64533211 35.96819397 -19.64533211 35.96819397 -19.22770691 35.00720215 C-18.64913584 33.67827888 -18.06821903 32.35037472 -17.48510742 31.0234375 C-16.61345098 29.03984959 -15.74842367 27.05348773 -14.88476562 25.06640625 C-13.4790566 21.8395062 -12.05950218 18.61901771 -10.62945557 15.40283203 C-10.06229202 14.12721631 -9.49684614 12.85083563 -8.93304443 11.57373047 C-8.12379269 9.74527102 -7.30429318 7.92135757 -6.484375 6.09765625 C-6.01217529 5.04255859 -5.53997559 3.98746094 -5.0534668 2.90039062 C-3.65323071 0.25463174 -3.03185998 -0.8425519 0 0 Z M5.21484375 15.50390625 C4.37370204 16.93685123 3.54218688 18.3754503 2.71484375 19.81640625 C2.25078125 20.61691406 1.78671875 21.41742188 1.30859375 22.2421875 C-0.00283511 24.53531805 -0.00283511 24.53531805 0.21484375 27.50390625 C2.10576111 28.34833506 4.0028189 29.17902212 5.90234375 30.00390625 C6.95808594 30.46796875 8.01382813 30.93203125 9.1015625 31.41015625 C12.12172214 32.471191 14.05911842 32.89097988 17.21484375 32.50390625 C20.42747142 30.79414453 20.42747142 30.79414453 21.21484375 27.69140625 C21.52362654 24.39855683 21.52362654 24.39855683 19.33984375 21.87890625 C15.40496054 18.88839501 10.33499327 15.50390625 5.21484375 15.50390625 Z " fill="#000000" transform="translate(659.78515625,155.49609375)"/>
<path d="M0 0 C10.17935697 -0.22987143 20.22602513 0.38158976 30.36865234 1.171875 C33.02248936 1.37673605 35.67710987 1.56758297 38.33203125 1.7578125 C40.03391845 1.88717785 41.73574408 2.01735641 43.4375 2.1484375 C44.22398926 2.20373627 45.01047852 2.25903503 45.82080078 2.31600952 C49.86537838 2.64414055 53.3912713 3.07592094 57 5 C58.1796875 7.2421875 58.1796875 7.2421875 58.875 9.875 C59.11992188 10.73867188 59.36484375 11.60234375 59.6171875 12.4921875 C60.02992754 15.19605594 60.09014237 16.50113485 59 19 C51.84287007 26.94916644 42.68380681 33.17761506 34.09033203 39.45800781 C31.95817433 41.03085388 29.85053045 42.63248482 27.74609375 44.2421875 C26.39330907 45.26573061 25.04044738 46.28917196 23.6875 47.3125 C23.0594043 47.79904053 22.43130859 48.28558105 21.78417969 48.78686523 C20.24615008 49.93784524 18.62794707 50.98015767 17 52 C15.515 51.505 15.515 51.505 14 51 C11.06818182 42.20454545 11.06818182 42.20454545 13 38 C15.1958407 36.09833891 17.52660092 34.51762084 20 33 C19.39297368 26.3227105 17.22368606 20.29872004 15 14 C14.16855469 13.9484375 13.33710937 13.896875 12.48046875 13.84375 C3.77204179 12.93468526 3.77204179 12.93468526 1.53515625 10.2265625 C0.19929208 6.65096585 0 3.84925775 0 0 Z M27 14 C27.45375 15.629375 27.9075 17.25875 28.375 18.9375 C28.63023437 19.85402344 28.88546875 20.77054687 29.1484375 21.71484375 C29.76660104 24.16745087 29.76660104 24.16745087 32 25 C35.96 22.03 39.92 19.06 44 16 C43.67 15.34 43.34 14.68 43 14 C37.72 14 32.44 14 27 14 Z " fill="#000000" transform="translate(819,384)"/>
<path d="M0 0 C2.90682193 0.98596948 5.37658975 2.42488958 8 4 C9.49429904 4.76129521 10.99424336 5.51162547 12.5 6.25 C13.655 6.8275 14.81 7.405 16 8 C16.33 6.68 16.66 5.36 17 4 C20.46827222 4.28902269 21.80653554 4.81671788 24.375 7.25 C26 10 26 10 25.75 12.8125 C25.5025 13.534375 25.255 14.25625 25 15 C27.64 16.32 30.28 17.64 33 19 C32.56179109 23.55737263 32.14958831 26.57653445 29 30 C25.04800013 28.83236367 22.2274473 27.53585145 19 25 C18.34 25 17.68 25 17 25 C15.3553326 27.46326712 15.3553326 27.46326712 14 30 C9.78087253 29.5205537 7.20336822 28.83374881 4 26 C4.62759865 23.07120629 5.58622659 20.63904371 7 18 C6.29875 17.731875 5.5975 17.46375 4.875 17.1875 C2 16 2 16 -1 14.3125 C-4.33145883 12.85498676 -5.62685645 12.78192038 -9 14 C-11.31523991 16.31523991 -11.43991897 17.07856438 -11.67578125 20.2578125 C-11.60663251 23.2606718 -11.45387737 24.52661115 -9.35302734 26.71777344 C-7.02813642 28.27324236 -4.67356443 29.5930934 -2.1875 30.875 C-0.53338389 31.78585125 1.11903075 32.69980088 2.76953125 33.6171875 C3.50792236 34.00503418 4.24631348 34.39288086 5.00708008 34.79248047 C7.0209791 36.01271134 8.48591306 37.19990219 10 39 C9.86443822 42.93129167 7.19277917 45.88766828 5 49 C-0.04474563 48.52207673 -3.36488163 46.77657927 -7.4375 43.9375 C-14.6845098 39.06900104 -22.24164544 34.98783771 -30 31 C-27.40568498 23.02938108 -27.40568498 23.02938108 -25 20 C-22.3125 19.6875 -22.3125 19.6875 -20 20 C-20.226875 19.01 -20.45375 18.02 -20.6875 17 C-21.31816168 12.493968 -20.24252686 8.92229033 -18 5 C-12.33902433 -0.38483052 -7.59960182 -0.75274211 0 0 Z " fill="#000000" transform="translate(816,662)"/>
<path d="M0 0 C8.22815241 3.71912489 15.24211471 10.15405055 18.953125 18.3828125 C18.953125 19.3728125 18.953125 20.3628125 18.953125 21.3828125 C15.983125 22.3728125 13.013125 23.3628125 9.953125 24.3828125 C9.06625 23.1246875 8.179375 21.8665625 7.265625 20.5703125 C4.80861323 17.31159971 2.81377665 14.96666959 -1.046875 13.3828125 C-3.75641051 13.13085121 -3.75641051 13.13085121 -6.046875 13.3828125 C-5.59139439 18.99091746 -4.12455776 22.45033801 -1.046875 27.1328125 C2.62003491 32.73574827 4.41943412 36.50475297 3.953125 43.3828125 C2.31763732 47.55330609 0.38043122 50.49102288 -3.046875 53.3828125 C-8.15059712 55.08405321 -13.40891984 55.3983831 -18.4921875 53.44140625 C-20.78081164 52.20399761 -22.90972194 50.86523081 -25.046875 49.3828125 C-26.09875 48.6609375 -27.150625 47.9390625 -28.234375 47.1953125 C-32.44380282 42.98588468 -36.85298661 37.70661339 -37.2109375 31.5703125 C-37.15679687 30.8484375 -37.10265625 30.1265625 -37.046875 29.3828125 C-34.076875 28.7228125 -31.106875 28.0628125 -28.046875 27.3828125 C-27.20809045 28.67094592 -26.37600717 29.96344506 -25.546875 31.2578125 C-25.0828125 31.97710938 -24.61875 32.69640625 -24.140625 33.4375 C-23.046875 35.3828125 -23.046875 35.3828125 -23.046875 37.3828125 C-22.469375 37.6715625 -21.891875 37.9603125 -21.296875 38.2578125 C-19.87959572 38.96645214 -18.47969051 39.71214543 -17.109375 40.5078125 C-14.63577678 41.55721781 -12.70733962 41.53061609 -10.046875 41.3828125 C-10.55726012 36.69278705 -11.77572477 33.76829891 -14.421875 29.8828125 C-15.04964844 28.92503906 -15.67742187 27.96726562 -16.32421875 26.98046875 C-16.89269531 26.12324219 -17.46117187 25.26601563 -18.046875 24.3828125 C-21.30979016 19.22530144 -22.2314116 14.38130584 -21.046875 8.3828125 C-16.44034272 0.25802256 -8.95246944 -2.69940872 0 0 Z " fill="#000000" transform="translate(317.046875,760.6171875)"/>
<path d="M0 0 C3.23970046 1.29588019 5.00462976 3.193188 7.1875 5.875 C6.92006863 9.46725379 5.25148383 11.11465439 2.6875 13.5 C0.06943354 15.91110916 0.06943354 15.91110916 -1.8125 18.875 C-2.4725 18.875 -3.1325 18.875 -3.8125 18.875 C-3.8125 19.535 -3.8125 20.195 -3.8125 20.875 C-4.4725 20.875 -5.1325 20.875 -5.8125 20.875 C-5.8125 21.535 -5.8125 22.195 -5.8125 22.875 C-4.760625 22.936875 -3.70875 22.99875 -2.625 23.0625 C2.96531182 24.25387793 5.10962649 27.25818974 8.1875 31.875 C8.89975918 36.68689052 8.78274971 40.7073948 6.5625 45.0625 C5.77875 45.990625 4.995 46.91875 4.1875 47.875 C3.6821875 48.50792969 3.176875 49.14085937 2.65625 49.79296875 C-0.26677415 53.38227047 -0.26677415 53.38227047 -1.8125 54.875 C-2.4725 54.875 -3.1325 54.875 -3.8125 54.875 C-3.8125 55.535 -3.8125 56.195 -3.8125 56.875 C-5.859375 58.85546875 -5.859375 58.85546875 -8.5625 61.0625 C-9.88507812 62.16658203 -9.88507812 62.16658203 -11.234375 63.29296875 C-13.8125 64.875 -13.8125 64.875 -15.96484375 64.7578125 C-18.94386696 63.33443143 -20.74577364 61.41412096 -22.8125 58.875 C-22.54838489 55.24341729 -20.81885666 53.5581245 -18.25 51.125 C-17.53585937 50.4340625 -16.82171875 49.743125 -16.0859375 49.03125 C-14.5703125 47.59375 -13.0546875 46.15625 -11.5390625 44.71875 C-10.82492187 44.0278125 -10.11078125 43.336875 -9.375 42.625 C-8.71628906 42.00109375 -8.05757812 41.3771875 -7.37890625 40.734375 C-5.68098542 38.71888793 -5.05892942 37.48929471 -4.8125 34.875 C-6.28938989 32.48049147 -6.28938989 32.48049147 -8.8125 30.875 C-11.6822643 30.29574173 -11.6822643 30.29574173 -14.8125 30.875 C-16.92230695 32.56699406 -18.53862575 34.07534189 -20.3125 36.0625 C-21.26508579 37.07465276 -22.21949566 38.0850921 -23.17578125 39.09375 C-24.04589844 40.0115625 -24.91601562 40.929375 -25.8125 41.875 C-27.76216327 43.63454314 -29.7452321 45.25470894 -31.8125 46.875 C-35.62934226 45.31999019 -38.00445732 42.83904505 -40.8125 39.875 C-39.45468786 36.8441582 -37.92831436 34.73849327 -35.58789062 32.39160156 C-34.93381226 31.73121887 -34.27973389 31.07083618 -33.60583496 30.39044189 C-32.90059692 29.68925232 -32.19535889 28.98806274 -31.46875 28.265625 C-30.74385376 27.53881531 -30.01895752 26.81200562 -29.27209473 26.06317139 C-27.74130989 24.53102721 -26.20800303 23.00139925 -24.67236328 21.47412109 C-22.3143923 19.12688369 -19.96730454 16.76914222 -17.62109375 14.41015625 C-16.13345364 12.92383718 -14.64519356 11.43813831 -13.15625 9.953125 C-12.45101196 9.2438385 -11.74577393 8.534552 -11.01916504 7.80377197 C-10.36508667 7.15599792 -9.7110083 6.50822388 -9.03710938 5.84082031 C-8.17345764 4.97955536 -8.17345764 4.97955536 -7.2923584 4.10089111 C-5.8125 2.875 -5.8125 2.875 -3.8125 2.875 C-3.8125 2.215 -3.8125 1.555 -3.8125 0.875 C-1.8125 -0.125 -1.8125 -0.125 0 0 Z " fill="#000000" transform="translate(777.8125,227.125)"/>
<path d="M0 0 C13.55706258 17.51120584 13.55706258 17.51120584 12.73046875 24.171875 C11.69078276 26.77386989 10.43116166 27.64935463 8 29 C5.25 29.1875 5.25 29.1875 3 29 C2.484375 30.0725 1.96875 31.145 1.4375 32.25 C-0.87743073 36.21271128 -3.57877311 38.63712639 -8 40 C-13.01379001 40.63301796 -17.38231381 40.69329408 -22.0625 38.6875 C-25.04486504 36.08995626 -26.37034923 33.82083497 -26.6875 29.9375 C-26.58385265 24.17093818 -23.28000592 21.1191411 -19.40234375 17.16796875 C-16.72940828 14.75580747 -14.05661533 12.88099405 -11 11 C-11 10.34 -11 9.68 -11 9 C-14.51509466 8.07937997 -16.57449536 7.86105971 -20.0625 9 C-23.81344651 11.55383592 -25.55776336 14.19298405 -28 18 C-30.64 17.01 -33.28 16.02 -36 15 C-35.7572697 10.02402884 -34.21728723 7.2943476 -30.94140625 3.7421875 C-21.90049445 -4.37098486 -9.83021257 -9.03275383 0 0 Z M-10 19.75 C-10.721875 20.26046875 -11.44375 20.7709375 -12.1875 21.296875 C-14.22135305 23.20799554 -14.81961275 24.22654603 -15 27 C-14.34 27.66 -13.68 28.32 -13 29 C-9.50278106 29.07216639 -9.50278106 29.07216639 -6 28 C-3.75699365 25.92836371 -3.75699365 25.92836371 -3 23 C-3.69940936 19.73185596 -3.69940936 19.73185596 -5 17 C-6.93422254 17 -8.49503566 18.66427573 -10 19.75 Z " fill="#000000" transform="translate(722,778)"/>
<path d="M0 0 C5.52329708 3.1771944 10.43377444 7.05505808 15.34375 11.09765625 C18.00123918 13.24373858 20.73162784 15.11113501 23.6171875 16.93359375 C22.3129547 20.84629215 20.82784011 23.30669616 17.6171875 25.93359375 C16.6271875 25.93359375 15.6371875 25.93359375 14.6171875 25.93359375 C14.51921875 26.52527344 14.42125 27.11695313 14.3203125 27.7265625 C13.09646086 34.19398541 11.49159606 37.92819243 5.9296875 41.80859375 C1.54282099 43.29847294 -1.93187988 43.16313315 -6.3828125 41.93359375 C-9.20273967 40.11239079 -10.88626728 38.92668419 -12.3828125 35.93359375 C-13.48592768 28.67258247 -11.91228529 24.13949516 -7.79296875 18.16015625 C-6.44137389 16.0260591 -5.82743889 14.39873752 -5.3828125 11.93359375 C-8.2667875 11.71568656 -8.2667875 11.71568656 -11.3828125 12.93359375 C-13.74991018 16.6427842 -14.99921009 20.78278651 -16.3828125 24.93359375 C-19.3528125 24.60359375 -22.3228125 24.27359375 -25.3828125 23.93359375 C-26.9822522 18.05852766 -25.10780035 14.17899079 -22.3828125 8.93359375 C-17.22203354 1.17074137 -9.34557941 -4.1825298 0 0 Z M2.6171875 17.93359375 C-1.28687136 22.34144414 -1.28687136 22.34144414 -2.1953125 27.87109375 C-1.9271875 28.55171875 -1.6590625 29.23234375 -1.3828125 29.93359375 C0.99093611 30.2678511 0.99093611 30.2678511 3.6171875 29.93359375 C5.64614962 28.39545954 5.64614962 28.39545954 6.6171875 25.93359375 C6.62393676 22.80679276 6.62393676 22.80679276 5.6171875 19.93359375 C4.6271875 19.27359375 3.6371875 18.61359375 2.6171875 17.93359375 Z " fill="#000000" transform="translate(246.3828125,274.06640625)"/>
<path d="M0 0 C4.23590662 4.52267013 7.18270832 9.95437156 7.58203125 16.21875 C6.89381761 21.0362455 5.24565021 24.86302057 3.01953125 29.15625 C2.35953125 29.15625 1.69953125 29.15625 1.01953125 29.15625 C0.77074219 29.76984375 0.52195312 30.3834375 0.265625 31.015625 C-1.99082346 34.89190637 -5.82198598 35.94078842 -9.98046875 37.15625 C-16.51138934 38.16456494 -21.78373078 37.72152458 -27.1953125 33.765625 C-32.23365093 29.22340305 -35.77771331 24.30250407 -36.92578125 17.51953125 C-37.05826508 11.79433704 -35.18461042 6.33704482 -31.73046875 1.78125 C-22.25152784 -7.26682996 -10.12208181 -8.65074592 0 0 Z M-22.98046875 11.15625 C-25.46085782 14.8768336 -25.44384078 16.75421571 -24.98046875 21.15625 C-23.56380208 23.73958333 -23.56380208 23.73958333 -20.98046875 25.15625 C-16.65420223 25.79717837 -14.56567603 25.4826156 -10.73046875 23.34375 C-9.82296875 22.621875 -8.91546875 21.9 -7.98046875 21.15625 C-7.36171875 20.723125 -6.74296875 20.29 -6.10546875 19.84375 C-4.19936162 16.98458931 -4.63098572 14.47633881 -4.98046875 11.15625 C-5.72583626 8.5790764 -5.72583626 8.5790764 -7.98046875 7.15625 C-14.05283234 6.00131026 -18.22903659 7.10014937 -22.98046875 11.15625 Z " fill="#000000" transform="translate(808.98046875,284.84375)"/>
<path d="M0 0 C3.5 1.6875 3.5 1.6875 6 4 C6.86625 4.7425 7.7325 5.485 8.625 6.25 C12.42874591 10.65433737 15.18446113 15.12758825 15.4375 21.0625 C14.70907061 27.6183645 12.0259214 32.82381534 8 38 C2.13487588 42.52103318 -2.62389377 43.74965871 -10 43 C-15.64972165 41.58496843 -20.83856054 39.25676351 -24.15625 34.2578125 C-27.87880826 27.84969434 -28.84191367 23.40100856 -28 16 C-25.66918399 8.98576866 -21.16825785 4.81260971 -15 1 C-10.58338034 -1.20830983 -4.80735768 -0.42210945 0 0 Z M-14.9375 13.1875 C-16.79773943 16.36084961 -17.21256622 18.8157025 -16.5625 22.4375 C-14.17540475 26.35233621 -10.96989296 28.75905108 -7 31 C-3.86871868 31.91828794 -3.86871868 31.91828794 -1 31 C2.08333333 29.08333333 2.08333333 29.08333333 4 26 C4.35829823 22.13037908 3.83643463 20.0568743 1.4140625 16.99609375 C-1.87972735 13.77390802 -4.59408502 11.55849392 -9.3125 11.375 C-12.8419495 11.73755277 -12.8419495 11.73755277 -14.9375 13.1875 Z " fill="#000000" transform="translate(794,702)"/>
<path d="M0 0 C4.20701934 1.77629705 6.43131716 4.27047011 9 8 C10.13210719 10.94290747 10.91637366 13.94524871 11.6875 17 C12.00557617 18.19109375 12.00557617 18.19109375 12.33007812 19.40625 C14.0033275 25.74031702 15.12939443 31.40088426 15 38 C11.37 38.66 7.74 39.32 4 40 C2.07485478 37.11228216 1.52061839 35.52630794 0.81640625 32.21875 C0.61080078 31.29449219 0.40519531 30.37023437 0.19335938 29.41796875 C-0.22703988 27.47345948 -0.64371116 25.52814047 -1.05664062 23.58203125 C-1.26353516 22.65777344 -1.47042969 21.73351562 -1.68359375 20.78125 C-1.86462646 19.93626953 -2.04565918 19.09128906 -2.23217773 18.22070312 C-3.09401511 15.72808858 -3.87949126 14.55852738 -6 13 C-9.83266292 13.14090084 -9.83266292 13.14090084 -13 15 C-13.63603563 22.12359911 -12.13202739 28.32603741 -10.24731445 35.14648438 C-9.73987448 37.07584756 -9.36088717 39.03793526 -9 41 C-11 44 -11 44 -13.3828125 44.73046875 C-14.28773438 44.88128906 -15.19265625 45.03210938 -16.125 45.1875 C-17.03507812 45.34605469 -17.94515625 45.50460938 -18.8828125 45.66796875 C-19.58148438 45.77753906 -20.28015625 45.88710937 -21 46 C-23.4305838 39.01480872 -25.39098904 31.98523635 -27.1875 24.8125 C-27.46013672 23.75869141 -27.73277344 22.70488281 -28.01367188 21.61914062 C-28.27083984 20.59626953 -28.52800781 19.57339844 -28.79296875 18.51953125 C-29.0252417 17.60276611 -29.25751465 16.68600098 -29.49682617 15.74145508 C-30.04139246 12.77448039 -30.08552595 10.01001524 -30 7 C-28.59054634 6.43983252 -27.1719969 5.90251498 -25.75 5.375 C-24.96109375 5.07335937 -24.1721875 4.77171875 -23.359375 4.4609375 C-20.50082285 3.90247864 -19.41040161 4.46309255 -17 6 C-16.05125 5.195625 -15.1025 4.39125 -14.125 3.5625 C-9.54718087 -0.31869448 -5.91711388 -0.56500219 0 0 Z " fill="#000000" transform="translate(442,149)"/>
<path d="M0 0 C3.62465125 3.06081661 5.54431994 5.51598553 7 10 C7.23046875 12.859375 7.23046875 12.859375 7.1875 15.75 C7.18105469 16.71421875 7.17460938 17.6784375 7.16796875 18.671875 C7 21 7 21 6 22 C-2.31605206 22.54902091 -10.71578159 21.67724997 -19 21 C-17.8512672 24.67995332 -17.8512672 24.67995332 -15.1875 27.33203125 C-12.56738438 28.13210227 -10.71231813 28.0306744 -8 27.6875 C-7.154375 27.58824219 -6.30875 27.48898438 -5.4375 27.38671875 C-3.24474262 27.03882936 -1.1415763 26.58001025 1 26 C4.93548387 31.24731183 4.93548387 31.24731183 5.1875 34.1875 C3.14154421 37.31027463 0.49643128 38.22301527 -3 39 C-10.52486583 39.65280196 -17.39749937 39.93340463 -24 36 C-24.886875 35.484375 -25.77375 34.96875 -26.6875 34.4375 C-30.8947948 30.00278386 -33.14485731 24.04840355 -33.5 17.9375 C-32.45206786 9.68503441 -29.31959071 4.64465466 -23 -0.6875 C-16.26379474 -5.1081347 -6.64417878 -3.77806244 0 0 Z M-18 9 C-18.33 10.32 -18.66 11.64 -19 13 C-14.38 13 -9.76 13 -5 13 C-5.3785962 8.11330201 -5.3785962 8.11330201 -7.875 6.6875 C-12.19432724 5.2900706 -14.47349609 6.40152343 -18 9 Z " fill="#000000" transform="translate(535,144)"/>
<path d="M0 0 C0.38897161 1.62171239 0.76078298 3.24754925 1.125 4.875 C1.33382812 5.77992188 1.54265625 6.68484375 1.7578125 7.6171875 C1.83773437 8.40351563 1.91765625 9.18984375 2 10 C-0.56576596 12.56576596 -2.22055057 12.57975286 -5.77734375 13.18359375 C-6.93041016 13.38919922 -8.08347656 13.59480469 -9.27148438 13.80664062 C-11.71105004 14.22644868 -14.15115631 14.6431275 -16.59179688 15.05664062 C-17.74615234 15.26353516 -18.90050781 15.47042969 -20.08984375 15.68359375 C-21.15066162 15.86462646 -22.21147949 16.04565918 -23.30444336 16.23217773 C-26.10131706 17.0288599 -27.21246356 17.75853506 -29 20 C-27.75023244 23.65316671 -27.32901247 24.78065836 -24 27 C-21.24971069 26.84443401 -18.65366089 26.58101467 -15.9375 26.1875 C-14.40500874 25.98651488 -12.87245672 25.78599241 -11.33984375 25.5859375 C-10.59718262 25.48506836 -9.85452148 25.38419922 -9.08935547 25.28027344 C-6.39669804 24.91907097 -3.70120183 24.60261457 -1 24.3125 C-0.236875 24.22613281 0.52625 24.13976562 1.3125 24.05078125 C2.1478125 24.02564453 2.1478125 24.02564453 3 24 C4.73956658 25.73956658 4.37190386 28.1936622 4.5625 30.5625 C4.64628906 31.57441406 4.73007812 32.58632813 4.81640625 33.62890625 C4.87699219 34.41136719 4.93757812 35.19382812 5 36 C0.38025125 37.40332854 -4.05445698 38.41294386 -8.8515625 39.0703125 C-10.11484375 39.24433594 -11.378125 39.41835938 -12.6796875 39.59765625 C-13.98164062 39.77167969 -15.28359375 39.94570313 -16.625 40.125 C-17.94797049 40.30820547 -19.2708877 40.4917962 -20.59375 40.67578125 C-31.18407333 42.11597859 -31.18407333 42.11597859 -36 42 C-36.95112258 39.14663226 -37.10629299 37.39109362 -37.0625 34.4375 C-37.05347656 33.65246094 -37.04445313 32.86742187 -37.03515625 32.05859375 C-37.02355469 31.37925781 -37.01195312 30.69992187 -37 30 C-36.82031543 27.66238955 -36.82031543 27.66238955 -39 24.875 C-41.4567619 20.67839604 -41.54449155 17.82263945 -41 13 C-39.32551104 9.23239985 -37.4187192 7.23167436 -34 5 C-31.50146484 4.20043945 -31.50146484 4.20043945 -28.7109375 3.61328125 C-27.68613281 3.39736328 -26.66132812 3.18144531 -25.60546875 2.95898438 C-24.00638672 2.63897461 -24.00638672 2.63897461 -22.375 2.3125 C-20.81072266 1.97508789 -20.81072266 1.97508789 -19.21484375 1.63085938 C-12.72284405 0.2976085 -6.62337105 -0.30726979 0 0 Z " fill="#000000" transform="translate(876,432)"/>
<path d="M0 0 C4.2631487 1.93720587 5.52643479 5.83751925 7.5078125 9.91796875 C7.93876221 10.77527588 8.36971191 11.63258301 8.8137207 12.51586914 C10.08380503 15.05817878 11.32782176 17.61208982 12.5703125 20.16796875 C13.24119622 21.50570593 13.91296731 22.84299874 14.5859375 24.1796875 C18.59715489 32.39893434 18.59715489 32.39893434 18.4921875 35.40625 C17.5703125 37.16796875 17.5703125 37.16796875 15.57421875 38.21484375 C14.36572266 38.56289063 14.36572266 38.56289063 13.1328125 38.91796875 C12.32972656 39.1603125 11.52664063 39.40265625 10.69921875 39.65234375 C8.5703125 40.16796875 8.5703125 40.16796875 6.5703125 40.16796875 C5.19611688 41.26446234 3.86823941 42.41967891 2.5703125 43.60546875 C-0.94792116 46.80680268 -2.87680249 48.32527349 -7.6796875 48.48046875 C-8.80117188 48.53654297 -8.80117188 48.53654297 -9.9453125 48.59375 C-14.83110515 47.75640503 -17.74612066 45.13174773 -20.5546875 41.171875 C-21.1734375 40.03621094 -21.7921875 38.90054688 -22.4296875 37.73046875 C-22.76291016 37.12444824 -23.09613281 36.51842773 -23.43945312 35.89404297 C-26.74145885 29.79669684 -29.64543828 23.51690068 -32.4296875 17.16796875 C-27.64441143 12.2730301 -27.64441143 12.2730301 -24.4296875 11.16796875 C-22.5546875 11.21484375 -22.5546875 11.21484375 -20.4296875 12.16796875 C-18.91380071 14.35001672 -17.66472256 16.39902196 -16.4296875 18.73046875 C-15.90314575 19.68022583 -15.90314575 19.68022583 -15.3659668 20.64916992 C-13.50521025 24.03437043 -11.81927025 27.45295305 -10.2421875 30.98046875 C-8.74603009 34.29961935 -8.74603009 34.29961935 -5.9296875 35.41796875 C-3.3080503 35.35097143 -3.3080503 35.35097143 -1.0546875 33.60546875 C0.84286716 31.28760682 0.84286716 31.28760682 0.421875 28.51953125 C-0.63785806 24.34865527 -2.41085159 20.88549194 -4.4296875 17.10546875 C-8.85520463 8.772808 -8.85520463 8.772808 -9.4296875 4.16796875 C-3.34574052 0.23129717 -3.34574052 0.23129717 0 0 Z " fill="#000000" transform="translate(676.4296875,792.83203125)"/>
<path d="M0 0 C3.70698596 3.58598642 6.1554663 7.71847266 8.8203125 12.109375 C9.87624718 13.81904433 10.93223455 15.52868112 11.98828125 17.23828125 C12.44871826 17.99310791 12.90915527 18.74793457 13.38354492 19.52563477 C14.43169558 21.22147985 15.52695253 22.88808505 16.6328125 24.546875 C16.6328125 26.984375 16.6328125 26.984375 15.6328125 29.546875 C10.81345818 33.61655198 10.81345818 33.61655198 7.61816406 33.42797852 C4.86746617 32.20721257 4.15616437 30.67465986 2.6796875 28.07421875 C2.14214844 27.17509766 1.60460937 26.27597656 1.05078125 25.34960938 C-0.05896876 23.44328237 -1.15543042 21.52915593 -2.23828125 19.60742188 C-4.95114615 14.6468594 -4.95114615 14.6468594 -9.57226562 11.92626953 C-12.03031134 11.86246057 -12.03031134 11.86246057 -15.3671875 12.546875 C-16.55232804 17.33652584 -16.30894996 19.62284077 -13.8046875 23.859375 C-13.25425781 24.80554688 -12.70382812 25.75171875 -12.13671875 26.7265625 C-10.02536237 30.09168238 -7.80885428 33.3640757 -5.46875 36.57421875 C-4.3671875 38.546875 -4.3671875 38.546875 -4.3671875 42.546875 C-9.3171875 45.021875 -9.3171875 45.021875 -14.3671875 47.546875 C-20.48831019 39.11332818 -25.87338306 30.30657566 -31.24145508 21.38110352 C-32.24519516 19.745645 -33.30276729 18.14350531 -34.3671875 16.546875 C-34.3046875 14.046875 -34.3046875 14.046875 -33.3671875 11.546875 C-30.70531851 9.40259164 -29.25227147 8.48211276 -25.8046875 8.734375 C-25.0003125 8.6725 -24.1959375 8.610625 -23.3671875 8.546875 C-21.29012268 5.76516604 -21.29012268 5.76516604 -19.3671875 2.546875 C-13.60131845 -2.78655387 -7.00754752 -4.30166283 0 0 Z " fill="#000000" transform="translate(337.3671875,195.453125)"/>
<path d="M0 0 C2.69731239 1.36252452 5.37000411 2.76710373 8.03540039 4.19091797 C11.34446657 5.93806001 14.69850127 7.59194418 18.05053711 9.25488281 C17.27201893 12.73226402 16.05727466 15.28491123 14.05053711 18.25488281 C13.06053711 18.74988281 13.06053711 18.74988281 12.05053711 19.25488281 C11.70769917 21.13902635 11.45106395 23.039187 11.23803711 24.94238281 C10.37564455 30.65318711 9.32242397 33.38984232 5.05053711 37.25488281 C1.57815524 39.80129618 -1.74158296 39.69018074 -5.94946289 39.25488281 C-9.89201869 37.3594233 -11.61197784 35.81010015 -13.88696289 32.06738281 C-16.14936962 23.94933512 -13.65978268 17.55472129 -9.94946289 10.25488281 C-11.59946289 10.25488281 -13.24946289 10.25488281 -14.94946289 10.25488281 C-17.18611254 15.01991903 -18.31609017 18.97677683 -18.94946289 24.25488281 C-19.94946289 25.25488281 -19.94946289 25.25488281 -21.79711914 25.35253906 C-23.84790039 25.31998698 -25.89868164 25.2874349 -27.94946289 25.25488281 C-30.23935008 20.67510844 -29.1626815 15.32967737 -27.69946289 10.62988281 C-25.47117968 4.63621363 -22.78164003 -0.19811272 -16.90258789 -3.10058594 C-10.64383641 -5.16597393 -5.55039869 -2.70511692 0 0 Z M-1.94946289 14.25488281 C-4.61029814 19.03194764 -4.61029814 19.03194764 -4.13696289 24.19238281 C-3.74508789 24.87300781 -3.35321289 25.55363281 -2.94946289 26.25488281 C-0.08221603 25.68143344 0.91198861 25.39343131 3.05053711 23.25488281 C3.63399187 20.29741789 3.63399187 20.29741789 3.05053711 17.25488281 C0.65996769 15.31946801 0.65996769 15.31946801 -1.94946289 14.25488281 Z " fill="#000000" transform="translate(211.949462890625,338.7451171875)"/>
<path d="M0 0 C4.23500927 3.38800742 7.83777277 6.35109109 9.1875 11.75 C9.3346303 14.75856097 9.30550242 17.74093829 9.1875 20.75 C6.76794294 21.95977853 4.87664978 22.0526595 2.1796875 22.28515625 C1.19355469 22.37216797 0.20742188 22.45917969 -0.80859375 22.54882812 C-1.84113281 22.63583984 -2.87367188 22.72285156 -3.9375 22.8125 C-4.97777344 22.90337891 -6.01804687 22.99425781 -7.08984375 23.08789062 C-9.66377048 23.31222369 -12.23796585 23.53276775 -14.8125 23.75 C-14.8125 25.07 -14.8125 26.39 -14.8125 27.75 C-10.49717259 29.18844247 -6.32663081 29.19851941 -1.8125 28.75 C-0.12042999 27.7936126 1.55566893 26.80589069 3.1875 25.75 C5.92982142 26.45516837 6.87404411 27.27981616 8.4375 29.625 C9.1875 31.75 9.1875 31.75 9.1875 35.75 C7.77271865 36.39995297 6.35558513 37.04478722 4.9375 37.6875 C4.14859375 38.04714844 3.3596875 38.40679687 2.546875 38.77734375 C-4.67484789 41.75451097 -11.52464043 41.38651306 -18.76953125 38.73046875 C-23.57927283 36.42216065 -26.43299439 32.39003595 -28.8125 27.75 C-30.61457968 21.81815438 -30.45654159 15.81771246 -28.625 9.9375 C-25.48045446 4.40743716 -21.12438575 0.13857338 -14.96875 -1.84375 C-9.97186738 -2.78519165 -4.61509247 -2.05115221 0 0 Z M-15.1875 9.5625 C-17.110662 11.69720048 -17.110662 11.69720048 -16.8125 14.75 C-15.22926312 14.777193 -13.64588938 14.79648306 -12.0625 14.8125 C-11.18078125 14.82410156 -10.2990625 14.83570313 -9.390625 14.84765625 C-7.0306162 14.75826198 -5.06751476 14.41912821 -2.8125 13.75 C-3.08867533 11.80925139 -3.08867533 11.80925139 -3.8125 9.75 C-7.95468729 6.98854181 -11.09559931 6.43973368 -15.1875 9.5625 Z " fill="#000000" transform="translate(488.8125,144.25)"/>
<path d="M0 0 C4.39218119 4.50776491 6.28525022 9.03596716 6.3125 15.3125 C6.15663434 22.1247462 5.07432617 26.82919354 0.3125 31.8125 C-6.09431764 36.04341731 -12.26766726 38.18151094 -20 37 C-25.75492078 35.2538087 -30.18142968 32.74428434 -34 28 C-36.97746197 21.96060905 -36.72813352 15.5754915 -36 9 C-34.10063508 3.87485415 -30.70965224 -0.21702368 -26 -3 C-16.95240696 -6.23380767 -7.99928942 -5.4235545 0 0 Z M-26 12 C-26.53073291 17.24274118 -26.53073291 17.24274118 -24.75 21.9375 C-20.55576955 24.48399706 -15.80449669 24.5348576 -11 24 C-6.67774504 22.43343215 -6.67774504 22.43343215 -4 19 C-3.62998271 15.59584089 -3.60760662 13.65993432 -5.375 10.6875 C-11.45059967 6.78175735 -20.60016599 6.60016599 -26 12 Z " fill="#000000" transform="translate(876,513)"/>
<path d="M0 0 C1.32 0 2.64 0 4 0 C8.09326923 6.45 8.09326923 6.45 7.62109375 9.234375 C7.41613281 9.81703125 7.21117187 10.3996875 7 11 C7.55429688 11.44730469 8.10859375 11.89460937 8.6796875 12.35546875 C16.5589712 18.93088522 16.5589712 18.93088522 17.20703125 24.91015625 C17.43636852 29.45443174 16.93822984 32.35254227 14 36 C10.18060826 39.34196778 6.15423685 41.72507786 1.6875 44.0625 C1.02468018 44.41175537 0.36186035 44.76101074 -0.32104492 45.12084961 C-4.7849105 47.44170947 -9.15882966 49.57612637 -14 51 C-17.29656322 49.35171839 -17.75828609 46.33005093 -19 43 C-19 41.68 -19 40.36 -19 39 C-15.54515902 37.16002803 -12.0855752 35.32916118 -8.625 33.5 C-7.64015625 32.97535156 -6.6553125 32.45070313 -5.640625 31.91015625 C-4.69960937 31.41386719 -3.75859375 30.91757812 -2.7890625 30.40625 C-1.91975098 29.94541016 -1.05043945 29.48457031 -0.15478516 29.00976562 C2 28 2 28 4 28 C3.73606499 24.56769552 3.73606499 24.56769552 3 21 C-0.58022658 18.61318228 -1.77181546 18.52688159 -6 19 C-8.80861331 20.094761 -11.41945049 21.4938175 -14.0625 22.9375 C-22.43691093 27.43962064 -22.43691093 27.43962064 -27 28 C-27.70226141 26.75823305 -28.38629109 25.50614401 -29.0625 24.25 C-29.44535156 23.55390625 -29.82820312 22.8578125 -30.22265625 22.140625 C-31 20 -31 20 -31.0390625 17.97265625 C-29.37389389 14.8113399 -26.40075124 13.70566751 -23.3125 12.1875 C-22.64782715 11.84710693 -21.9831543 11.50671387 -21.29833984 11.15600586 C-19.20603412 10.08910286 -17.10443701 9.04274344 -15 8 C-13.64173084 7.32070475 -12.28365262 6.64102756 -10.92578125 5.9609375 C-8.49943911 4.74639009 -6.06845638 3.54368272 -3.6328125 2.34765625 C-1.13875314 1.24116925 -1.13875314 1.24116925 0 0 Z " fill="#000000" transform="translate(208,652)"/>
<path d="M0 0 C4.08733624 4.99563319 4.08733624 4.99563319 3.75 8.875 C3.5025 9.57625 3.255 10.2775 3 11 C4.36125 11.7734375 4.36125 11.7734375 5.75 12.5625 C9.41577108 15.03819848 11.49812528 17.84031327 13 22 C13.77963319 26.11296286 13.32909639 29.28457307 11.5625 33.125 C4.08718205 41.51194209 -6.96105769 45.45884814 -17 50 C-20.40843742 47.11593757 -21.86591384 45.6291735 -22.8125 41.1875 C-22.874375 40.135625 -22.93625 39.08375 -23 38 C-22.10692139 37.56131592 -22.10692139 37.56131592 -21.19580078 37.11376953 C-18.50345138 35.78836183 -15.81421033 34.45676446 -13.125 33.125 C-12.18785156 32.66480469 -11.25070312 32.20460938 -10.28515625 31.73046875 C-9.38925781 31.28574219 -8.49335937 30.84101563 -7.5703125 30.3828125 C-6.74289551 29.97434082 -5.91547852 29.56586914 -5.06298828 29.14501953 C-2.86588981 28.04929491 -2.86588981 28.04929491 -1 26 C-0.58333333 23 -0.58333333 23 -1 20 C-4.39417138 17.73721908 -5.90429697 17.83768742 -9.84228516 18.44824219 C-14.18264598 19.55813305 -17.81846414 21.99488529 -21.61914062 24.29296875 C-24.4588358 25.92821118 -26.49770492 27.00069763 -29.8125 26.99609375 C-32.56909609 25.74085803 -33.13233581 24.69121643 -34.3125 21.9375 C-34.63863281 21.20402344 -34.96476563 20.47054688 -35.30078125 19.71484375 C-35.53152344 19.14894531 -35.76226563 18.58304687 -36 18 C-33.77869688 15.57635948 -31.56476744 14.04644259 -28.68359375 12.4765625 C-27.83603516 12.0125 -26.98847656 11.5484375 -26.11523438 11.0703125 C-24.78975586 10.35488281 -24.78975586 10.35488281 -23.4375 9.625 C-22.58091797 9.15578125 -21.72433594 8.6865625 -20.84179688 8.203125 C-18.23705898 6.78414063 -15.62075947 5.38914308 -13 4 C-12.0836377 3.50467773 -11.16727539 3.00935547 -10.22314453 2.49902344 C-8.89259033 1.7995459 -8.89259033 1.7995459 -7.53515625 1.0859375 C-6.33644897 0.44857666 -6.33644897 0.44857666 -5.11352539 -0.20166016 C-3 -1 -3 -1 0 0 Z " fill="#000000" transform="translate(829,316)"/>
<path d="M0 0 C0.804375 0.474375 1.60875 0.94875 2.4375 1.4375 C1.98802002 9.97761956 -0.71158583 17.45283633 -3.5625 25.4375 C-0.79973823 24.91481534 1.7635876 24.32880413 4.4375 23.4375 C5.0975 18.4875 5.7575 13.5375 6.4375 8.4375 C12.4921875 7.4609375 12.4921875 7.4609375 14.4375 7.4375 C16.77929133 9.77929133 16.73296326 10.25730865 16.75 13.4375 C16.5340964 21.33703184 14.60024692 28.27401534 9.01953125 34.03125 C3.89242357 38.58867905 -0.94687494 38.96583411 -7.58984375 38.79296875 C-13.90382505 38.03794602 -18.98120159 34.75700993 -23.5625 30.4375 C-27.48665448 24.92658087 -27.15874687 19.97917998 -26.5625 13.4375 C-25.47592232 7.13108837 -22.33751808 3.80725935 -17.5 -0.21484375 C-12.05157835 -4.00457252 -5.71740616 -2.50763428 0 0 Z M-16.5 11 C-18.02418725 14.49666486 -17.49078981 16.79064716 -16.5625 20.4375 C-15.26985301 22.40181405 -15.26985301 22.40181405 -13.5625 23.4375 C-12.9025 23.4375 -12.2425 23.4375 -11.5625 23.4375 C-10.2425 19.1475 -8.9225 14.8575 -7.5625 10.4375 C-8.66899557 9.12215212 -8.66899557 9.12215212 -11.4375 9.125 C-14.56783544 9.15019299 -14.56783544 9.15019299 -16.5 11 Z " fill="#000000" transform="translate(841.5625,620.5625)"/>
<path d="M0 0 C7.1875 2.66964286 7.1875 2.66964286 10 5 C10.39821248 10.33199764 9.55460014 15.24525696 8.5 20.4375 C8.35691406 21.16904297 8.21382812 21.90058594 8.06640625 22.65429688 C7.71678704 24.43735486 7.35922312 26.21885203 7 28 C7.52432617 27.63124756 8.04865234 27.26249512 8.58886719 26.88256836 C10.96698459 25.22098898 13.35810494 23.57917644 15.75 21.9375 C16.575 21.35677734 17.4 20.77605469 18.25 20.17773438 C19.44882812 19.36079102 19.44882812 19.36079102 20.671875 18.52734375 C21.4050293 18.01937256 22.13818359 17.51140137 22.89355469 16.98803711 C25 16 25 16 27.15039062 16.26757812 C29.28327123 17.11217182 30.91611799 18.1870885 32.75 19.5625 C33.36359375 20.01753906 33.9771875 20.47257812 34.609375 20.94140625 C35.06828125 21.29074219 35.5271875 21.64007813 36 22 C34.62676773 25.30416231 33.33927018 26.73400354 30.25390625 28.515625 C29.12976318 29.17933105 29.12976318 29.17933105 27.98291016 29.85644531 C27.1841748 30.31631836 26.38543945 30.77619141 25.5625 31.25 C20.24982342 34.39211963 15.06546833 37.53558035 10.125 41.25 C-6.0537111 53.30326403 -6.0537111 53.30326403 -15 53 C-18.60811342 52.10690262 -21.32707517 51.02401605 -23.4375 47.8125 C-23.623125 47.214375 -23.80875 46.61625 -24 46 C-20.25 40.125 -20.25 40.125 -18 39 C-16.2984375 39.2784375 -16.2984375 39.2784375 -14.5625 39.5625 C-10.90129691 40.40507508 -10.90129691 40.40507508 -8 38 C-5.03087408 29.13386011 -4.24206514 19.26992625 -3.08984375 10.0222168 C-2.97640625 9.15508057 -2.86296875 8.28794434 -2.74609375 7.39453125 C-2.60192017 6.23207886 -2.60192017 6.23207886 -2.45483398 5.04614258 C-2 3 -2 3 0 0 Z " fill="#000000" transform="translate(698,190)"/>
<path d="M0 0 C4.26936627 2.56696761 6.93068055 5.78669825 8.5625 10.5 C9.22566422 16.00775337 9.70258832 20.78986752 6.5625 25.5 C-2.03618438 24.88580826 -10.13234752 22.69092979 -18.4375 20.5 C-16.85345784 25.52815414 -16.85345784 25.52815414 -13.14453125 28.8984375 C-10.11964396 29.57063468 -7.21741601 29.92110444 -4.125 30.125 C-3.05636719 30.19976563 -1.98773438 30.27453125 -0.88671875 30.3515625 C-0.07847656 30.40054688 0.72976563 30.44953125 1.5625 30.5 C2.0575 34.46 2.0575 34.46 2.5625 38.5 C-2.70459567 41.58888087 -8.83507753 41.30053833 -14.6875 40 C-16.71102982 39.30441162 -18.54219812 38.49182111 -20.4375 37.5 C-21.0665625 37.17128906 -21.695625 36.84257813 -22.34375 36.50390625 C-26.68884692 33.84345496 -29.01191739 30.77273772 -30.84375 26.02734375 C-32.43827644 19.2401161 -31.13370923 12.26576518 -27.74609375 6.22265625 C-21.35321589 -2.19304266 -9.50606789 -4.11808666 0 0 Z M-15.4375 9.5 C-15.7675 10.49 -16.0975 11.48 -16.4375 12.5 C-11.72776351 14.26615118 -7.40666636 14.98594831 -2.4375 15.5 C-2.62165432 12.55908413 -2.62165432 12.55908413 -3.4375 9.5 C-7.30980061 6.56239264 -11.46189397 6.8952926 -15.4375 9.5 Z " fill="#000000" transform="translate(457.4375,837.5)"/>
<path d="M0 0 C5.19309803 4.19228685 8.32184487 10.01717642 9.0625 16.5859375 C9.21660907 21.1524325 8.94605574 24.86105771 6.36328125 28.828125 C3.17715001 32.23259518 -0.85693422 34.7561914 -5.17578125 36.47265625 C-7.22607422 36.24487305 -7.22607422 36.24487305 -9.17578125 35.47265625 C-10.42477151 32.88204726 -11.39431532 30.49256376 -12.30078125 27.78515625 C-12.55214844 27.07681641 -12.80351562 26.36847656 -13.0625 25.63867188 C-13.78542721 23.58911646 -14.48532377 21.53335151 -15.17578125 19.47265625 C-15.75972656 17.73048828 -15.75972656 17.73048828 -16.35546875 15.953125 C-16.62617188 15.13457031 -16.896875 14.31601562 -17.17578125 13.47265625 C-17.83578125 13.47265625 -18.49578125 13.47265625 -19.17578125 13.47265625 C-21.02741511 16.19564722 -21.17132844 17.55429111 -20.98828125 20.91015625 C-20.1890028 24.41468482 -19.16734865 26.52513649 -17.17578125 29.47265625 C-16.49481703 30.79874447 -15.82247539 32.12952226 -15.17578125 33.47265625 C-17.42578125 36.03515625 -17.42578125 36.03515625 -20.17578125 38.47265625 C-22.70882754 38.29279498 -23.87918144 37.73734801 -25.7734375 36.046875 C-30.68141838 29.72539563 -33.41773265 22.75892782 -33.046875 14.65625 C-32.22119135 9.66495512 -30.9873636 5.97519138 -27.17578125 2.47265625 C-19.03907183 -3.10355021 -8.92665267 -5.05179735 0 0 Z M-10.17578125 9.47265625 C-8.52578125 14.09265625 -6.87578125 18.71265625 -5.17578125 23.47265625 C-3.52578125 22.15265625 -1.87578125 20.83265625 -0.17578125 19.47265625 C-0.10807497 15.61339831 -0.30218227 13.43985512 -2.92578125 10.53515625 C-5.51461285 9.11681766 -5.51461285 9.11681766 -10.17578125 9.47265625 Z " fill="#000000" transform="translate(196.17578125,619.52734375)"/>
<path d="M0 0 C7.65217391 2.43478261 7.65217391 2.43478261 10 4 C11.15517939 7.1726696 10.94479246 9.68216148 10.44140625 12.984375 C10.23354492 14.38623047 10.23354492 14.38623047 10.02148438 15.81640625 C9.87001953 16.78449219 9.71855469 17.75257813 9.5625 18.75 C9.41490234 19.73355469 9.26730469 20.71710937 9.11523438 21.73046875 C8.75041022 24.15478412 8.37843254 26.57777798 8 29 C8.72445313 28.39671875 9.44890625 27.7934375 10.1953125 27.171875 C23.20998279 16.4130809 23.20998279 16.4130809 27.4375 15.4375 C31.29127017 16.28344955 33.96788916 18.55333995 37 21 C34.22013583 24.80023784 31.54425513 27.19687705 27.5625 29.6875 C22.99837461 32.63389033 18.65297392 35.71587203 14.375 39.0625 C-4.14567796 53.49258619 -4.14567796 53.49258619 -13 53.2578125 C-16.12272996 52.85527309 -18.39342672 51.71652386 -21 50 C-22 47 -22 47 -21.22265625 45.17578125 C-20.1484375 43.45052083 -19.07421875 41.72526042 -18 40 C-16.948125 40.20625 -15.89625 40.4125 -14.8125 40.625 C-10.91482501 41.00837787 -9.45343391 40.56269376 -6 39 C-5.88930176 37.99622314 -5.77860352 36.99244629 -5.66455078 35.95825195 C-5.25047443 32.22077538 -4.82706308 28.48440466 -4.40087891 24.74829102 C-4.21800581 23.13366721 -4.03763766 21.51875759 -3.85986328 19.90356445 C-3.60332797 17.57683221 -3.33768793 15.25128966 -3.0703125 12.92578125 C-2.99313995 12.20787918 -2.91596741 11.48997711 -2.8364563 10.75032043 C-2.38083376 6.87236237 -1.65045042 3.54574789 0 0 Z " fill="#000000" transform="translate(333,790)"/>
<path d="M0 0 C3.56157177 1.90838113 6.73373348 3.97286014 9.75 6.6875 C9.44381595 10.36170866 8.99228216 11.46885513 6.1875 14 C5.383125 14.556875 4.57875 15.11375 3.75 15.6875 C3.25371094 15.27757812 2.75742187 14.86765625 2.24609375 14.4453125 C-2.18973103 10.92695432 -5.69912349 8.84393261 -11.25 7.6875 C-9.79037467 11.2852792 -7.93349438 12.93259437 -4.8125 15.1875 C-1.16708542 17.82997515 2.01038609 20.19068256 3.33203125 24.65234375 C3.82373839 28.86102348 4.01362658 31.91478904 1.75 35.6875 C-1.42668912 38.55676759 -4.08071776 39.59395742 -8.375 39.9375 C-18.31096932 39.29646972 -25.47466219 34.8613871 -32.25 27.6875 C-30.95700306 24.80312221 -29.59058637 22.81530579 -27.25 20.6875 C-23.93106597 21.82838357 -21.16797524 23.33784199 -18.25 25.25 C-15.26156177 27.1743731 -12.85536879 28.34949668 -9.25 28.6875 C-11.03226231 24.76652292 -13.36759106 22.70093233 -16.75 20.1875 C-22.99709302 15.44622093 -22.99709302 15.44622093 -24.25 11.6875 C-24.53016208 7.7652309 -24.45026479 4.20664111 -21.94140625 1.03125 C-14.92389863 -4.98875653 -7.83495034 -3.80621653 0 0 Z " fill="#000000" transform="translate(389.25,817.3125)"/>
<path d="M0 0 C1.03125 -0.00257813 2.0625 -0.00515625 3.125 -0.0078125 C5.59657009 0.10636329 7.6442958 0.41149344 10 1.125 C11.47529342 4.96076288 10.34639643 7.37359009 9 11.125 C8.01257813 11.11339844 7.02515625 11.10179687 6.0078125 11.08984375 C4.72648438 11.08082031 3.44515625 11.07179688 2.125 11.0625 C0.21074219 11.04509766 0.21074219 11.04509766 -1.7421875 11.02734375 C-4.88664652 10.89323431 -4.88664652 10.89323431 -7 12.125 C-7 12.785 -7 13.445 -7 14.125 C-5.91460938 14.28355469 -4.82921875 14.44210937 -3.7109375 14.60546875 C-2.26545881 14.84012438 -0.820155 15.07585903 0.625 15.3125 C1.33785156 15.41369141 2.05070313 15.51488281 2.78515625 15.61914062 C8.21037471 16.53993458 11.08040396 18.24761499 15 22.125 C16.73925396 25.60350792 16.44237861 29.32186448 16 33.125 C13.65541685 37.92073827 9.75447945 39.63539789 4.92578125 41.40234375 C-2.56676252 43.25297205 -9.80731908 42.8168716 -17 40.125 C-16.67 37.155 -16.34 34.185 -16 31.125 C-14.95199219 31.13660156 -13.90398438 31.14820313 -12.82421875 31.16015625 C-11.44531428 31.16953655 -10.06640789 31.1786365 -8.6875 31.1875 C-7.99720703 31.19587891 -7.30691406 31.20425781 -6.59570312 31.21289062 C-3.4516975 31.22807906 -1.00579981 31.12693327 2 30.125 C2.33 29.135 2.66 28.145 3 27.125 C2.05898438 27.01542969 1.11796875 26.90585937 0.1484375 26.79296875 C-1.09679687 26.63441406 -2.34203125 26.47585938 -3.625 26.3125 C-4.85476563 26.16167969 -6.08453125 26.01085937 -7.3515625 25.85546875 C-11.71570028 24.98170669 -15.10884356 23.36403353 -18.8125 20.9375 C-21.27676449 17.1762542 -21.22574544 12.74284235 -20.625 8.4375 C-15.95127124 1.78642446 -7.65012312 -0.01912531 0 0 Z " fill="#000000" transform="translate(559,839.875)"/>
<path d="M0 0 C2.35964273 0.40683495 3.85934088 0.89814339 5.8125 2.3125 C7 4 7 4 6.6875 6.1875 C6.3471875 7.0846875 6.3471875 7.0846875 6 8 C5.34 8 4.68 8 4 8 C6.31121897 13.77804742 10.12895215 18.13065957 15 22 C15.99 22 16.98 22 18 22 C18 21.34 18 20.68 18 20 C20.75 19.25 20.75 19.25 24 19 C26.375 20.625 26.375 20.625 28 23 C28.4375 25.5625 28.4375 25.5625 28 28 C26.5 29.8125 26.5 29.8125 25 31 C26.119538 33.51896049 27.31981552 35.39734655 29.0625 37.5625 C31 40 31 40 32 43 C30.2709523 46.64010042 28.35841315 48.79966035 25 51 C21.54804233 49.5741914 19.8985744 47.90253666 17.75 44.875 C17.22921875 44.15054688 16.7084375 43.42609375 16.171875 42.6796875 C15.78515625 42.12539063 15.3984375 41.57109375 15 41 C13.700625 41.433125 13.700625 41.433125 12.375 41.875 C9 42 9 42 7.23046875 40.87109375 C4.15172855 37.99423816 4.15172855 37.99423816 3 36 C3.30829733 33.68559895 3.9570478 32.0859044 5 30 C4.01 29.67 3.02 29.34 2 29 C0.421875 27.43359375 0.421875 27.43359375 -1.25 25.4375 C-3.14167278 23.18608603 -5.027666 20.97069728 -7.046875 18.83203125 C-7.69140625 18.14496094 -8.3359375 17.45789063 -9 16.75 C-9.598125 16.12609375 -10.19625 15.5021875 -10.8125 14.859375 C-12 13 -12 13 -11.8671875 10.93359375 C-10.41774161 7.70172115 -7.79294578 6.06677988 -5 4 C-4.01 3.67 -3.02 3.34 -2 3 C-1.34 2.01 -0.68 1.02 0 0 Z " fill="#000000" transform="translate(732,752)"/>
<path d="M0 0 C0.721875 0.00257813 1.44375 0.00515625 2.1875 0.0078125 C2.909375 0.00523437 3.63125 0.00265625 4.375 0 C6.1875 0.1328125 6.1875 0.1328125 7.1875 1.1328125 C7.22830783 3.13239614 7.23004356 5.13326504 7.1875 7.1328125 C7.96996094 7.12121094 8.75242187 7.10960937 9.55859375 7.09765625 C10.57050781 7.08863281 11.58242188 7.07960938 12.625 7.0703125 C13.63433594 7.05871094 14.64367187 7.04710937 15.68359375 7.03515625 C18.1875 7.1328125 18.1875 7.1328125 19.1875 8.1328125 C19.42037008 9.81465198 19.60014166 11.5040541 19.75 13.1953125 C19.83378906 14.11441406 19.91757812 15.03351563 20.00390625 15.98046875 C20.06449219 16.69074219 20.12507812 17.40101563 20.1875 18.1328125 C16.98369983 20.26867928 16.16810033 20.36413425 12.5 20.2578125 C11.69175781 20.23976563 10.88351562 20.22171875 10.05078125 20.203125 C9.43589844 20.17992187 8.82101562 20.15671875 8.1875 20.1328125 C8.22875 21.2465625 8.27 22.3603125 8.3125 23.5078125 C8.1875 27.1328125 8.1875 27.1328125 6.1875 29.1328125 C2.625 29.3203125 2.625 29.3203125 -0.8125 29.1328125 C-1.8125 28.1328125 -1.8125 28.1328125 -2.8125 21.1328125 C-9.4125 21.1328125 -16.0125 21.1328125 -22.8125 21.1328125 C-22.8125 23.4428125 -22.8125 25.7528125 -22.8125 28.1328125 C-23.8125 29.1328125 -23.8125 29.1328125 -25.66015625 29.23046875 C-27.7109375 29.19791667 -29.76171875 29.16536458 -31.8125 29.1328125 C-34.36630349 23.8655928 -34.60576629 19.42447066 -32.6875 13.8828125 C-30.32214988 10.41363232 -28.7831557 9.50449356 -24.8125 8.1328125 C-17.55972416 6.81412598 -10.15554824 7.01926021 -2.8125 7.1328125 C-2.833125 6.1634375 -2.85375 5.1940625 -2.875 4.1953125 C-2.79355894 0.20470044 -2.79355894 0.20470044 0 0 Z " fill="#010101" transform="translate(873.8125,474.8671875)"/>
<path d="M0 0 C1.640625 1.046875 1.640625 1.046875 4.078125 3.109375 C4.078125 3.769375 4.078125 4.429375 4.078125 5.109375 C4.738125 5.109375 5.398125 5.109375 6.078125 5.109375 C6.078125 5.769375 6.078125 6.429375 6.078125 7.109375 C6.738125 7.109375 7.398125 7.109375 8.078125 7.109375 C8.078125 7.769375 8.078125 8.429375 8.078125 9.109375 C8.738125 9.109375 9.398125 9.109375 10.078125 9.109375 C10.078125 9.769375 10.078125 10.429375 10.078125 11.109375 C11.96991703 11.7908573 11.96991703 11.7908573 14.078125 12.109375 C14.738125 11.449375 15.398125 10.789375 16.078125 10.109375 C18.85682428 10.3231211 20.62968111 10.8104124 22.953125 12.359375 C24.078125 14.109375 24.078125 14.109375 23.765625 16.546875 C23.4253125 17.8153125 23.4253125 17.8153125 23.078125 19.109375 C23.078125 20.429375 23.078125 21.749375 23.078125 23.109375 C23.59375 23.604375 24.109375 24.099375 24.640625 24.609375 C26.078125 26.109375 26.078125 26.109375 26.140625 27.984375 C24.50390283 31.25781935 21.97027354 32.89411229 19.078125 35.109375 C16.12402799 33.73782996 13.63804124 32.12073776 11.078125 30.109375 C8.108125 32.584375 8.108125 32.584375 5.078125 35.109375 C2.768125 33.129375 0.458125 31.149375 -1.921875 29.109375 C-0.90466203 27.07494906 0.12261202 25.03819577 1.328125 23.109375 C2.34843343 21.06442881 2.34843343 21.06442881 1.203125 18.859375 C0.64625 17.993125 0.64625 17.993125 0.078125 17.109375 C-0.581875 17.109375 -1.241875 17.109375 -1.921875 17.109375 C-1.921875 16.449375 -1.921875 15.789375 -1.921875 15.109375 C-2.56125 14.8 -3.200625 14.490625 -3.859375 14.171875 C-5.921875 13.109375 -5.921875 13.109375 -6.921875 12.109375 C-9.37979529 11.77593949 -9.37979529 11.77593949 -11.921875 12.109375 C-12.911875 13.594375 -12.911875 13.594375 -13.921875 15.109375 C-17.29650215 14.56213817 -19.004225 14.054475 -21.921875 12.109375 C-22.34765625 9.75 -22.34765625 9.75 -21.921875 7.109375 C-20.27734375 4.90625 -20.27734375 4.90625 -18.109375 2.859375 C-17.40167969 2.17359375 -16.69398438 1.4878125 -15.96484375 0.78125 C-11.37676358 -2.97343128 -5.20755321 -2.41325637 0 0 Z " fill="#000000" transform="translate(759.921875,738.890625)"/>
<path d="M0 0 C3.99500618 1.3697164 6.80009492 3.25722422 10 6 C9.67 7.32 9.34 8.64 9 10 C8.34 10 7.68 10 7 10 C6.05392193 12.74961511 6.05392193 12.74961511 6 16 C8.31273442 18.8971941 8.31273442 18.8971941 11 21 C9.35 22.98 7.7 24.96 6 27 C3.06296616 26.37063561 0.66211372 25.37579827 -2 24 C-3.29398147 25.43541666 -4.58510111 26.87341352 -5.875 28.3125 C-6.95394531 29.51326172 -6.95394531 29.51326172 -8.0546875 30.73828125 C-10.11605502 33.04189083 -10.11605502 33.04189083 -12 36 C-11.84298574 38.61915122 -11.84298574 38.61915122 -11 41 C-10.34 41.33 -9.68 41.66 -9 42 C-9.59927826 45.35595828 -10.84622436 47.37801226 -13 50 C-18.22588808 49.68327951 -21.5609835 46.69889181 -25 43 C-26.72751664 40.51769148 -27.00629082 39.2505845 -26.9296875 36.19921875 C-25.72991348 32.07058461 -23.69002824 29.21679385 -21.125 25.8125 C-20.67769531 25.19697266 -20.23039063 24.58144531 -19.76953125 23.94726562 C-18.07529516 21.64080558 -16.42544156 19.40451511 -14.34716797 17.4284668 C-12.77129958 16.08474996 -12.77129958 16.08474996 -13 14 C-13.66 13.67 -14.32 13.34 -15 13 C-15.36101683 9.75084855 -15.24958242 8.3647743 -13.375 5.625 C-12.59125 5.08875 -11.8075 4.5525 -11 4 C-10.030625 4.185625 -9.06125 4.37125 -8.0625 4.5625 C-7.051875 4.706875 -6.04125 4.85125 -5 5 C-2.1028059 2.68726558 -2.1028059 2.68726558 0 0 Z " fill="#000000" transform="translate(747,212)"/>
<path d="M0 0 C4.47091574 2.94874542 7.67732103 6.47336934 9.375 11.56640625 C9.41454234 13.8994045 9.41901732 16.23348814 9.375 18.56640625 C6.41835481 20.04472885 3.63270263 19.62673408 0.375 19.56640625 C0.19066406 19.00050781 0.00632812 18.43460938 -0.18359375 17.8515625 C-1.12778413 15.46380994 -2.03204096 13.58726121 -3.625 11.56640625 C-6.68579351 10.25871649 -9.344525 10.09275478 -12.625 10.56640625 C-15.54643417 12.33143939 -17.10423817 13.5248826 -18.625 16.56640625 C-19.12570321 19.93997959 -19.12570321 19.93997959 -18.625 23.56640625 C-16.02592405 26.81525119 -13.48502281 28.99380437 -9.625 30.56640625 C-10.285 33.20640625 -10.945 35.84640625 -11.625 38.56640625 C-16.99076957 39.07743192 -19.47393317 37.95503223 -23.625 34.56640625 C-29.95307974 28.09509837 -32.1056427 23.88071738 -32.0390625 14.71484375 C-31.21586323 8.45542291 -27.5142955 4.40846936 -23.125 0.12890625 C-15.06873834 -4.90625729 -8.13362266 -4.35198408 0 0 Z " fill="#000000" transform="translate(271.625,737.43359375)"/>
<path d="M0 0 C3.32169806 1.36274792 4.6210062 2.92593356 6.4375 6 C6.4375 8.625 6.4375 8.625 5.4375 11 C2.23060345 14 2.23060345 14 -0.5625 14 C0.118125 14.9075 0.79875 15.815 1.5 16.75 C3.4375 20 3.4375 20 3.4375 22.25 C2.10200107 24.58712313 0.96682786 25.13280188 -1.5625 26 C-2.8825 26 -4.2025 26 -5.5625 26 C-6.2225 24.35 -6.8825 22.7 -7.5625 21 C-13.47827376 23.74660925 -18.46729475 26.93467666 -23.5625 31 C-23.211875 31.7425 -22.86125 32.485 -22.5 33.25 C-21.50870132 36.15780946 -21.32293905 37.23482558 -22.5625 40 C-25.79427122 42.15451414 -26.81223107 42.52410591 -30.5625 42 C-34.02344586 38.98315781 -36.18626368 35.12870896 -37.625 30.8125 C-37.54663497 27.2860737 -36.56900483 25.88079887 -34.5625 23 C-32.328125 20.9375 -32.328125 20.9375 -29.8125 19 C-28.49378906 17.9790625 -28.49378906 17.9790625 -27.1484375 16.9375 C-23.9881769 14.56969146 -20.80418765 12.25508706 -17.5625 10 C-18.2225 8.35 -18.8825 6.7 -19.5625 5 C-17.375 2.9375 -17.375 2.9375 -14.5625 1 C-11.78962751 1.19345622 -10.03164446 1.76542777 -7.5625 3 C-6.799375 2.505 -6.03625 2.01 -5.25 1.5 C-2.5625 0 -2.5625 0 0 0 Z " fill="#000000" transform="translate(241.5625,688)"/>
<path d="M0 0 C3.73487777 0.4979837 5.81237635 0.87491756 9 3 C8.45276317 6.37462715 7.9451 8.08235 6 11 C7.60387267 12.1254191 9.20810916 13.25031972 10.8125 14.375 C11.70582031 15.00148438 12.59914062 15.62796875 13.51953125 16.2734375 C17.38785537 18.96603476 19.25961743 20.2562369 24 20 C24.66 18.68 25.32 17.36 26 16 C29.82097239 16.53069061 32.06171403 17.49701566 35 20 C33.74942129 25.68444867 32.02339363 28.77543669 28 33 C24.73652575 34.63173712 21.52627734 34.53831678 18 34 C13.97675821 32.31373692 10.40594941 29.94310589 6.79296875 27.51953125 C6.09816406 27.05933594 5.40335938 26.59914063 4.6875 26.125 C4.07261719 25.69445312 3.45773438 25.26390625 2.82421875 24.8203125 C0.45449901 23.75469977 -0.5905849 24.1439603 -3 25 C-3.99 25.33 -4.98 25.66 -6 26 C-9.1875 24.0625 -9.1875 24.0625 -12 22 C-11.67 20.02 -11.34 18.04 -11 16 C-12.98 14.68 -14.96 13.36 -17 12 C-16.38545304 8.00544473 -14.29353263 5.25533664 -12 2 C-8.65626525 2.55728913 -5.96687001 3.35173889 -3 5 C-2.01 3.35 -1.02 1.7 0 0 Z " fill="#000000" transform="translate(211,303)"/>
<path d="M0 0 C1.62600941 0.0870005 3.25089678 0.1951781 4.875 0.3125 C5.77992188 0.37050781 6.68484375 0.42851563 7.6171875 0.48828125 C10 1 10 1 12 4 C11.66906957 6.79155827 10.79958861 9.29028304 10 12 C10.763125 12.12375 11.52625 12.2475 12.3125 12.375 C15 13 15 13 18 15 C17.34 17.31 16.68 19.62 16 22 C12.26940301 22.95929637 9.73201925 22.84676067 6 22 C4.88482498 27.98729887 3.80499864 33.96251023 3 40 C4.98 40.99 6.96 41.98 9 43 C7.125 49.875 7.125 49.875 6 51 C0.97215269 51.13256095 -3.58763474 50.84903493 -7.5625 47.5625 C-10.94505933 44.00647609 -11.38332494 41.85160565 -11.3671875 36.9296875 C-10.58907975 30.72138095 -8.15613859 24.84467568 -6 19 C-7.32 18.34 -8.64 17.68 -10 17 C-9.67 14.03 -9.34 11.06 -9 8 C-5 7 -5 7 -2 8 C-1.7834375 6.576875 -1.7834375 6.576875 -1.5625 5.125 C-1 2 -1 2 0 0 Z " fill="#000000" transform="translate(411,818)"/>
<path d="M0 0 C2.97 0.99 5.94 1.98 9 3 C8.43953055 10.01305368 6.93532373 16.28654179 4.875 23 C4.24207331 25.11025282 3.6106125 27.22094575 2.98046875 29.33203125 C2.49199463 30.96325928 2.49199463 30.96325928 1.99365234 32.62744141 C0.01117734 39.35616616 -1.83565675 46.1236801 -3.68994141 52.88867188 C-3.96370605 53.87802734 -4.2374707 54.86738281 -4.51953125 55.88671875 C-4.75776611 56.75514404 -4.99600098 57.62356934 -5.24145508 58.51831055 C-6.0244887 61.08011833 -6.97109404 63.52780221 -8 66 C-11.3 65.34 -14.6 64.68 -18 64 C-17.3543835 56.91595819 -15.60210925 50.31649582 -13.69140625 43.4765625 C-13.36462387 42.294039 -13.03784149 41.1115155 -12.70115662 39.89315796 C-12.01217284 37.40634063 -11.32030949 34.9203195 -10.62573242 32.43505859 C-9.5609246 28.61935461 -8.50943282 24.80014749 -7.45898438 20.98046875 C-6.78725591 18.56227831 -6.1147569 16.14430174 -5.44140625 13.7265625 C-5.12675919 12.58079742 -4.81211212 11.43503235 -4.4879303 10.25454712 C-4.19099777 9.19939911 -3.89406525 8.1442511 -3.58813477 7.05712891 C-3.3291188 6.12639557 -3.07010284 5.19566223 -2.80323792 4.23672485 C-2 2 -2 2 0 0 Z " fill="#000000" transform="translate(616,138)"/>
<path d="M0 0 C2.21484375 0.015625 2.21484375 0.015625 4.9375 0.25 C6.28134766 0.35054687 6.28134766 0.35054687 7.65234375 0.453125 C10 1 10 1 12 4 C12.495 3.67 12.99 3.34 13.5 3 C17.17006041 1.53197584 20.0509118 1.74522012 24 2 C24.66 2.66 25.32 3.32 26 4 C25.7578125 6.3828125 25.7578125 6.3828125 25.125 9.125 C24.92132812 10.03507813 24.71765625 10.94515625 24.5078125 11.8828125 C24.34023438 12.58148438 24.17265625 13.28015625 24 14 C22.96939453 14.05607422 22.96939453 14.05607422 21.91796875 14.11328125 C21.01691406 14.17902344 20.11585938 14.24476563 19.1875 14.3125 C18.29417969 14.37050781 17.40085937 14.42851562 16.48046875 14.48828125 C13.5571488 15.09135985 12.82143578 15.68048063 11 18 C10.34863017 20.37078028 10.34863017 20.37078028 10.12109375 23.03515625 C10.00443359 24.00904297 9.88777344 24.98292969 9.76757812 25.98632812 C9.65865234 27.00146484 9.54972656 28.01660156 9.4375 29.0625 C9.21472803 31.07508561 8.98461568 33.08687643 8.74609375 35.09765625 C8.64997803 35.98976807 8.5538623 36.88187988 8.45483398 37.80102539 C8 40 8 40 6 42 C3.3984375 41.9765625 3.3984375 41.9765625 0.375 41.625 C-0.62789062 41.51414063 -1.63078125 41.40328125 -2.6640625 41.2890625 C-3.82035156 41.14597656 -3.82035156 41.14597656 -5 41 C-5.26752037 33.26779837 -4.36557413 25.77633445 -3.34594727 18.13134766 C-3.05954957 15.97781457 -2.78409108 13.82306955 -2.50976562 11.66796875 C-1.13702343 1.13702343 -1.13702343 1.13702343 0 0 Z " fill="#000000" transform="translate(552,143)"/>
<path d="M0 0 C3.09192762 7.59024915 5.99898305 15.23997135 8.8125 22.9375 C9.23208984 24.05962891 9.65167969 25.18175781 10.08398438 26.33789062 C10.47521484 27.41103516 10.86644531 28.48417969 11.26953125 29.58984375 C11.62635986 30.55784912 11.98318848 31.52585449 12.35083008 32.52319336 C13 35 13 35 12 38 C9.71484375 38.94921875 9.71484375 38.94921875 6.9375 39.6875 C6.01839844 39.93886719 5.09929687 40.19023437 4.15234375 40.44921875 C3.44207031 40.63097656 2.73179687 40.81273437 2 41 C-3.45134471 32.45203344 -6.62330893 22.36294512 -9.9375 12.8125 C-10.35902344 11.60207031 -10.78054688 10.39164063 -11.21484375 9.14453125 C-12.31912673 4.72190539 -12.31912673 4.72190539 -11 2 C-7.20986282 0.27721037 -4.10830463 -0.08384295 0 0 Z " fill="#000000" transform="translate(401,160)"/>
<path d="M0 0 C0.73605469 0.22945312 1.47210938 0.45890625 2.23046875 0.6953125 C2.23046875 1.3553125 2.23046875 2.0153125 2.23046875 2.6953125 C2.89046875 2.6953125 3.55046875 2.6953125 4.23046875 2.6953125 C6.23046875 5.6953125 6.23046875 5.6953125 6.16796875 8.109375 C4.91338165 11.56994441 3.13448842 12.8358307 0.23046875 15.0703125 C-0.76339844 15.84632813 -1.75726563 16.62234375 -2.78125 17.421875 C-3.76738281 18.17210937 -4.75351563 18.92234375 -5.76953125 19.6953125 C-7.37441834 20.94438741 -8.97865605 22.19429744 -10.58203125 23.4453125 C-11.66677734 24.27289062 -11.66677734 24.27289062 -12.7734375 25.1171875 C-14.61000006 26.56918608 -16.30320922 28.10564019 -18.01953125 29.6953125 C-20.76953125 31.6953125 -20.76953125 31.6953125 -23.39453125 31.8203125 C-26.59018833 30.3065802 -27.97515706 28.73194574 -29.76953125 25.6953125 C-29.8359375 23.41796875 -29.8359375 23.41796875 -28.76953125 20.6953125 C-26.49877303 18.32282059 -23.93828226 16.37280567 -21.33203125 14.3828125 C-19.8683388 13.23847409 -18.40479697 12.09394299 -16.94140625 10.94921875 C-15.86922852 10.11994873 -15.86922852 10.11994873 -14.77539062 9.27392578 C-13.02977842 7.90012728 -11.33610108 6.49232842 -9.66015625 5.03515625 C-8.38398438 3.93880859 -8.38398438 3.93880859 -7.08203125 2.8203125 C-6.35628906 2.18351563 -5.63054687 1.54671875 -4.8828125 0.890625 C-2.76953125 -0.3046875 -2.76953125 -0.3046875 0 0 Z " fill="#000000" transform="translate(249.76953125,715.3046875)"/>
<path d="M0 0 C2.69990662 1.79993774 4.5418865 3.083773 6 6 C6.47844415 9.0826338 6.55149629 11.92434762 6 15 C2.95666217 18.63715985 1.12108584 19.82298645 -3.5625 20.5625 C-7.52374737 19.91429589 -9.18799374 18.81200626 -12 16 C-13.6020886 12.79582279 -13.49285215 9.47660568 -13 6 C-9.64166825 0.55718648 -6.28362262 -0.62836226 0 0 Z " fill="#000000" transform="translate(174,464)"/>
<path d="M0 0 C2.97247625 2.1120226 3.83352425 3.44111713 4.875 6.9375 C5.01321637 10.32380105 4.66675754 12.06333195 3 15 C0.24725156 17.65782608 -2.1667583 18.81746468 -6 19 C-9.87950875 17.68096702 -11.60259196 16.57688264 -13.9375 13.1875 C-15.17328586 9.48014243 -15.28243739 7.68700751 -14 4 C-9.14488191 -0.60613768 -6.56652106 -1.47180644 0 0 Z " fill="#000000" transform="translate(612,839)"/>
<path d="M0 0 C1.9375 1.0625 1.9375 1.0625 3 3 C3.52776637 6.56056467 3.62903915 9.74192169 2 13 C-1.2688284 14.6344142 -4.48005464 14.61493021 -8 14 C-10.5625 12.5 -10.5625 12.5 -12 10 C-12.30704776 6.08710933 -11.82148063 3.0426485 -9.375 -0.0625 C-5.91568392 -1.42801951 -3.55940268 -0.90602977 0 0 Z " fill="#000000" transform="translate(837,706)"/>
<path d="M0 0 C2.4375 2.125 2.4375 2.125 4 5 C3.93689022 8.15548924 3.48864121 10.13769198 1.9375 12.875 C-1.23536296 14.71730752 -4.43225049 14.52772961 -8 14 C-10 12.9375 -10 12.9375 -11 11 C-11.5 7.5625 -11.5 7.5625 -11 4 C-7.71861389 0.2360571 -4.93655202 -0.94529719 0 0 Z " fill="#000000" transform="translate(395,144)"/>
<path d="M0 0 C3.5 0.5625 3.5 0.5625 6 2.125 C7.5 4.5625 7.5 4.5625 7.5625 8.125 C6.5 11.5625 6.5 11.5625 4.3125 13.625 C0.05285481 15.04488173 -2.64429337 13.49035332 -6.5 11.5625 C-7.375 8.8125 -7.375 8.8125 -7.5 5.5625 C-5.45638108 1.64556373 -4.39720316 0.70669337 0 0 Z " fill="#000000" transform="translate(260.5,704.4375)"/>
<path d="" fill="#000000" transform="translate(0,0)"/>
<path d="" fill="#000000" transform="translate(0,0)"/>
<path d="" fill="#000000" transform="translate(0,0)"/>
</svg>
