<svg version="1.1" id="Layer_1" xmlns="http://www.w3.org/2000/svg" xmlns:xlink="http://www.w3.org/1999/xlink" x="0px" y="0px"
	 width="100%" viewBox="0 0 1024 1024" enable-background="new 0 0 1024 1024" xml:space="preserve">
<path fill="#000000" opacity="1.000000" stroke="none" 
	d="
M625.374146,868.922852 
	C623.884338,865.429077 620.984863,865.839172 618.401001,865.971191 
	C612.587646,866.268250 606.792603,867.042847 600.979187,867.190186 
	C592.358398,867.408752 586.589966,863.751770 583.845825,856.849976 
	C580.958679,849.588379 582.712097,842.130188 588.943115,836.422607 
	C596.526306,829.476379 605.956604,826.951965 615.843994,825.671265 
	C616.336609,825.607422 616.842590,825.652100 617.341797,825.632996 
	C624.285828,825.367004 631.234314,826.488708 636.111084,818.819641 
	C638.739624,814.686096 644.593445,813.147827 649.723083,812.067322 
	C659.020447,810.108826 667.157837,813.686768 671.596497,822.108826 
	C675.240967,829.024109 678.453491,836.174255 681.666809,843.306213 
	C683.046448,846.368103 684.779053,847.486938 687.819458,845.627808 
	C691.096375,843.624146 692.797546,844.951111 694.303467,848.142090 
	C697.974792,855.921387 698.097656,855.863403 690.267883,861.588928 
	C691.562073,864.657166 692.768250,867.905579 694.289001,870.999268 
	C695.504700,873.472595 695.112915,874.996155 692.540527,876.122192 
	C689.033813,877.657349 685.576660,879.313965 682.152527,881.026978 
	C679.853394,882.177185 678.569153,881.513611 677.417542,879.280762 
	C675.762329,876.071411 674.840881,872.446716 672.142395,869.364624 
	C668.747986,870.800659 665.365845,872.132629 662.073547,873.658508 
	C659.805115,874.709900 658.240723,874.367737 657.290588,871.971375 
	C657.229431,871.817200 657.134949,871.676636 657.066589,871.524963 
	C651.813049,859.866760 651.177124,862.705933 661.591919,857.778931 
	C665.305359,856.022156 666.242920,854.358826 664.328979,850.634399 
	C661.745605,845.607178 659.701111,840.306274 657.265137,835.199280 
	C653.620789,827.558716 649.425171,826.729065 642.839600,832.190857 
	C642.214111,832.709656 641.579041,833.216736 641.040588,833.654419 
	C638.009277,833.106140 637.096436,829.833740 633.919006,829.071960 
	C633.383240,831.658875 632.635742,834.174194 632.387695,836.737793 
	C632.064941,840.073425 630.982849,841.179260 627.285828,840.657104 
	C619.646851,839.578308 611.964478,839.833008 604.810974,843.361511 
	C602.596436,844.453857 599.873535,845.607361 600.513367,848.730286 
	C601.242493,852.289246 604.409363,851.906982 607.012756,851.694275 
	C611.651855,851.315186 616.263184,850.608582 620.893494,850.106750 
	C632.571777,848.841064 640.188965,853.533691 642.795959,863.511963 
	C644.316650,869.332397 642.841125,874.572815 638.983032,878.852295 
	C628.300476,890.701782 614.226196,892.882629 599.267761,892.000916 
	C596.660889,891.847351 595.497437,890.134827 596.183044,887.428955 
	C596.427429,886.464783 596.579346,885.472229 596.706055,884.484009 
	C597.623657,877.326416 597.620117,877.289429 604.522705,877.651245 
	C609.777344,877.926636 614.788696,876.898071 619.631470,874.975037 
	C622.326416,873.904907 624.733521,872.442200 625.374146,868.922852 
z"/>
<path fill="#000000" opacity="1.000000" stroke="none" 
	d="
M842.718201,467.817200 
	C844.402344,467.354279 845.707703,467.002228 847.019104,466.978210 
	C870.340637,466.550964 893.663147,466.173370 916.984863,465.754761 
	C919.797913,465.704254 922.606995,465.645233 922.690308,469.495605 
	C923.014038,484.463898 924.703674,499.506165 922.267334,514.378418 
	C918.950195,534.628113 904.614990,546.748901 883.946777,547.670654 
	C864.603516,548.533325 849.063660,537.377319 844.665283,517.684692 
	C841.036133,501.436401 841.369019,484.702179 842.718201,467.817200 
M871.198914,525.447205 
	C887.712219,532.355713 903.798340,524.872314 906.318604,508.582672 
	C907.326721,502.066498 906.624390,495.285706 906.700378,488.625366 
	C906.725159,486.453674 905.544250,485.789307 903.514404,485.826324 
	C890.185974,486.069366 876.856506,486.259338 863.527222,486.456177 
	C859.944275,486.509094 857.938660,487.835175 858.281006,491.885681 
	C858.574768,495.361267 858.187439,498.890686 858.407288,502.376984 
	C858.998718,511.754395 861.731018,520.061584 871.198914,525.447205 
z"/>
<path fill="#000000" opacity="1.000000" stroke="none" 
	d="
M264.756592,185.724976 
	C274.916382,178.806870 284.109131,171.040771 296.322906,168.416351 
	C313.629486,164.697678 329.877869,171.810333 339.090607,187.703842 
	C347.724609,202.598938 345.822876,221.043579 334.311249,233.587067 
	C330.816345,237.395264 327.015869,240.868851 322.748901,243.827423 
	C314.271881,249.705109 305.784668,255.570831 297.414673,261.598450 
	C294.741455,263.523560 293.052429,263.715698 290.963593,260.682373 
	C277.469086,241.086136 263.886261,221.549332 250.143005,202.127045 
	C247.666992,198.627899 248.276108,196.766312 251.692444,194.665329 
	C256.080200,191.966919 260.214569,188.856506 264.756592,185.724976 
M274.659302,202.967499 
	C283.125183,215.075363 291.591064,227.183212 300.256836,239.576965 
	C305.105988,236.239441 309.520294,233.298752 313.818848,230.197556 
	C315.700043,228.840363 317.453583,227.261658 319.077454,225.600189 
	C325.785156,218.737320 327.593842,209.565659 323.466980,200.731705 
	C319.278717,191.766418 312.870880,185.397980 302.127289,185.286240 
	C290.417725,185.164459 282.788666,193.262207 274.151001,199.288818 
	C272.919006,200.148407 273.607971,201.380569 274.659302,202.967499 
z"/>
<path fill="#000000" opacity="1.000000" stroke="none" 
	d="
M661.771851,214.615677 
	C661.224915,213.668976 660.813477,213.006424 660.067017,211.804337 
	C656.397644,218.728348 652.850769,225.082489 649.648254,231.605682 
	C648.025024,234.912079 646.325500,235.514557 643.062378,233.686081 
	C627.759644,225.111267 629.627075,229.392563 637.267639,214.668549 
	C647.231262,195.467545 657.813171,176.587997 667.861938,157.430008 
	C669.936279,153.475266 671.927490,152.735992 675.513550,155.153214 
	C677.297974,156.356018 679.336670,157.174408 681.212158,158.250793 
	C684.079773,159.896622 688.277954,160.920120 684.111816,165.716766 
	C702.559021,165.531967 716.406860,175.104401 719.245544,189.379700 
	C722.302002,204.750275 713.013245,222.155594 698.810852,227.670181 
	C685.267212,232.929001 669.852905,227.594894 661.771851,214.615677 
M700.774597,191.130890 
	C698.107300,182.877518 690.314087,177.953247 682.916382,179.846832 
	C674.457397,182.012085 668.570374,191.888947 670.335449,200.954346 
	C671.728577,208.109512 679.359253,212.944016 687.529541,211.847794 
	C695.662292,210.756592 701.329590,202.325089 700.774597,191.130890 
z"/>
<path fill="#000000" opacity="1.000000" stroke="none" 
	d="
M757.897339,790.231323 
	C744.489441,785.294861 731.450684,780.474304 717.518799,775.323608 
	C721.818420,769.883118 725.967773,765.477112 730.515259,761.465088 
	C732.193237,759.984619 734.205200,761.229553 735.620422,762.150696 
	C744.771973,768.107971 751.835693,766.268127 758.191711,757.471863 
	C761.754944,752.540527 766.623169,748.526611 771.062439,744.264954 
	C773.147705,742.262939 773.966492,740.320862 772.370850,737.721802 
	C772.112000,737.300171 771.902954,736.832397 771.757080,736.359375 
	C770.450500,732.122498 765.724670,727.817871 767.647644,724.035034 
	C770.220642,718.973206 775.387207,715.229736 779.207764,711.167175 
	C781.683777,711.932617 781.950928,713.531433 782.486206,714.869385 
	C792.181946,739.107117 801.782837,763.383179 811.615662,787.565002 
	C813.039856,791.067688 812.092957,793.029114 809.983032,795.904419 
	C803.720581,804.438660 796.932678,806.090881 787.188232,801.239075 
	C778.014282,796.671265 767.942932,793.905823 757.897339,790.231323 
M766.320740,770.597595 
	C764.131348,772.587463 764.706665,773.835815 767.298096,774.814209 
	C772.270447,776.691345 777.170227,778.761292 782.148376,780.622131 
	C785.113586,781.730591 787.901123,783.521118 791.813293,783.853271 
	C788.047668,774.510986 784.537170,765.857971 779.753113,756.448547 
	C774.982666,761.482056 770.885742,765.804932 766.320740,770.597595 
z"/>
<path fill="#000000" opacity="1.000000" stroke="none" 
	d="
M827.651611,629.450684 
	C824.050415,629.795959 824.698669,627.663879 825.072388,625.887695 
	C825.928040,621.821594 826.899658,617.780029 827.817566,613.726990 
	C828.346497,611.391479 829.552246,609.813721 832.144836,609.621887 
	C833.135437,609.548523 834.112976,609.289795 835.094482,609.104919 
	C847.006348,606.860840 847.010071,606.861145 849.536316,595.229309 
	C851.019531,588.400146 852.376282,581.540710 854.024353,574.751770 
	C854.598877,572.385132 853.946228,570.971313 852.080872,569.693665 
	C849.333130,567.811707 846.817017,565.540466 843.925842,563.932007 
	C840.285217,561.906555 839.719116,559.283020 840.987244,555.611023 
	C842.434143,551.421082 842.557617,546.838501 844.405518,542.865601 
	C846.418457,542.384155 847.414429,543.730103 848.564392,544.590698 
	C869.505188,560.262573 890.392212,576.006592 911.396240,591.593018 
	C914.086975,593.589722 914.830566,595.584717 914.104614,598.776306 
	C910.860840,613.036682 910.919128,613.024475 896.583252,615.846497 
	C873.735168,620.344055 850.894897,624.881165 827.651611,629.450684 
M875.247009,586.299744 
	C873.195190,585.012878 871.624451,582.851318 868.418701,582.678101 
	C866.079468,589.283447 864.940430,596.159058 863.439026,602.996399 
	C867.899536,603.725037 886.359497,600.720581 892.199219,598.370667 
	C886.543152,594.342346 881.186768,590.527405 875.247009,586.299744 
z"/>
<path fill="#000000" opacity="1.000000" stroke="none" 
	d="
M237.274704,318.675171 
	C243.563431,323.290527 243.563416,323.290527 239.220230,328.995270 
	C232.211853,338.200684 232.156448,338.274719 223.116684,331.507812 
	C204.729538,317.743713 186.466537,303.812958 168.008057,290.145752 
	C164.582092,287.609070 164.267960,285.520538 167.095032,282.601318 
	C167.785995,281.887848 168.350281,281.048920 168.950882,280.251160 
	C175.219086,271.925018 175.197556,271.950958 183.735611,278.392456 
	C192.996719,285.379364 202.300690,292.309387 212.454483,299.914795 
	C211.365448,289.548065 210.588318,280.191681 209.304382,270.905365 
	C208.800110,267.258240 209.554443,264.471008 211.790451,261.706024 
	C214.999741,257.737518 217.993652,253.594833 221.234665,249.321899 
	C224.444138,251.879486 223.507324,255.225922 224.035660,257.888916 
	C225.487427,265.206299 226.396820,272.638580 227.315811,280.050842 
	C227.703629,283.178741 229.047470,284.152191 232.205322,284.067688 
	C243.519943,283.765076 254.842392,283.744751 266.162201,283.657990 
	C267.958984,283.644226 269.811798,283.228851 272.379974,284.497925 
	C268.357574,290.413422 264.578827,296.320801 259.537109,301.269104 
	C258.084412,302.694885 255.710419,302.058258 253.732819,302.155762 
	C245.957199,302.539124 238.108795,301.675354 230.201584,303.307861 
	C229.349518,309.936310 230.683777,315.293121 237.274704,318.675171 
z"/>
<path fill="#000000" opacity="1.000000" stroke="none" 
	d="
M881.520020,660.682251 
	C890.958008,683.260864 880.078918,710.941528 858.363037,720.371399 
	C852.671326,722.842834 852.182922,722.614258 850.417358,716.646179 
	C850.228394,716.007507 850.037415,715.369263 849.861755,714.726868 
	C847.717529,706.887268 847.718201,706.887085 854.686035,702.885742 
	C865.509399,696.670471 870.477478,681.812805 865.433777,670.743225 
	C860.388367,659.669800 845.778137,653.221924 834.271606,656.990540 
	C822.722656,660.773071 814.864685,674.003723 818.014709,686.066467 
	C819.536865,691.895325 817.323547,693.530212 812.649231,695.214600 
	C802.584045,698.841492 802.514099,698.950867 800.584839,688.657715 
	C796.839050,668.673035 810.880005,645.438843 830.891785,638.507507 
	C849.728943,631.983093 871.627869,641.457336 881.520020,660.682251 
z"/>
<path fill="#000000" opacity="1.000000" stroke="none" 
	d="
M885.701904,402.207886 
	C873.195740,395.263702 857.280518,398.956268 850.585388,410.080444 
	C843.528687,421.805206 847.027588,436.911377 858.898743,444.713654 
	C861.734741,446.577667 861.891296,448.199432 860.327209,450.782043 
	C859.122620,452.771240 857.964600,454.831512 857.130188,456.993103 
	C855.423279,461.415222 853.046936,461.765778 849.169312,459.267548 
	C833.843140,449.393158 825.941162,426.684418 831.504456,407.860382 
	C836.698669,390.284790 853.747314,378.297272 872.939514,378.725983 
	C889.955139,379.106049 905.604858,391.240967 910.989807,408.417328 
	C914.635193,420.045044 915.090027,431.636322 909.619507,442.913818 
	C907.242432,447.814209 906.319885,447.985962 901.758362,445.009583 
	C901.340210,444.736725 900.925964,444.457703 900.505554,444.188507 
	C893.156067,439.483185 893.155884,439.483429 895.853699,431.144257 
	C899.171265,420.889130 895.217346,409.348328 885.701904,402.207886 
z"/>
<path fill="#000000" opacity="1.000000" stroke="none" 
	d="
M223.247528,754.302490 
	C215.376709,759.930054 207.686768,765.206482 200.276062,770.849670 
	C197.037415,773.315918 195.135117,773.290161 192.698212,769.805481 
	C182.874985,755.758789 172.878784,741.831116 162.786453,727.976074 
	C160.577682,724.943787 160.941589,723.237183 164.042511,721.223328 
	C174.615585,714.356689 171.811417,713.435486 179.219269,723.650513 
	C185.158020,731.839722 191.098465,740.027710 197.138596,748.354675 
	C202.565247,745.585205 206.871002,741.919983 211.378693,738.569763 
	C213.843124,736.738037 212.027740,735.038574 210.914566,733.470947 
	C205.614838,726.007812 200.395126,718.482422 194.885162,711.176575 
	C192.470413,707.974854 192.951370,706.152283 196.231018,704.050537 
	C206.788116,697.284973 203.788284,696.508118 211.396927,706.825134 
	C216.325851,713.508545 221.121414,720.290222 226.479080,727.724976 
	C232.465958,723.504211 238.257950,719.448853 244.019653,715.351013 
	C250.144699,710.994751 250.132172,710.977173 254.542862,717.165649 
	C261.424377,726.820801 261.416931,726.810364 251.884674,733.664368 
	C242.428101,740.463928 232.988724,747.287415 223.247528,754.302490 
z"/>
<path fill="#000000" opacity="1.000000" stroke="none" 
	d="
M375.519287,146.036591 
	C391.103607,144.856934 403.285431,152.506729 408.599640,166.232819 
	C409.992249,169.829880 409.669373,171.877594 405.601105,173.403793 
	C394.856323,177.434662 384.275116,181.902481 373.639618,186.222946 
	C371.969391,186.901443 370.109161,187.270706 368.645355,189.103073 
	C371.048187,193.341721 375.318695,194.446259 379.528717,194.260193 
	C386.589813,193.948135 393.018494,191.378723 397.013367,185.161301 
	C399.078064,181.947876 400.901245,182.085815 403.939575,183.488052 
	C413.893555,188.081955 414.201813,189.078659 407.162659,197.371185 
	C398.211884,207.915741 378.826172,213.364349 365.996826,208.570526 
	C352.856659,203.660568 346.400146,193.282608 345.368744,179.906494 
	C344.436340,167.814346 350.175568,158.430313 360.282898,151.833878 
	C364.786285,148.894775 369.778595,147.058472 375.519287,146.036591 
M373.343628,161.434204 
	C364.652039,165.148407 360.739868,171.658768 364.026917,177.663635 
	C372.297272,174.292053 380.605499,170.905029 389.323212,167.351059 
	C385.033539,161.091843 379.907593,160.329849 373.343628,161.434204 
z"/>
<path fill="#000000" opacity="1.000000" stroke="none" 
	d="
M530.538269,180.802094 
	C519.889343,185.235245 509.485931,185.493668 499.052460,181.555038 
	C485.047668,176.268265 477.647461,164.326187 478.737305,148.983093 
	C479.667725,135.884247 489.725342,124.316681 502.984009,121.096199 
	C523.618958,116.084045 541.259277,127.987396 543.894897,148.702026 
	C544.904297,156.635574 543.896179,157.844467 536.035828,157.887131 
	C525.544434,157.944061 515.052551,157.923737 504.561310,158.000549 
	C502.636597,158.014618 500.553223,157.465591 498.537720,159.258560 
	C499.840637,164.496292 503.875275,167.131805 508.591553,168.253387 
	C514.691284,169.703964 521.022461,169.611526 526.295837,165.583572 
	C529.274719,163.308273 530.942993,163.838623 533.327454,166.351471 
	C540.994141,174.430710 540.950928,175.160309 530.538269,180.802094 
M525.317322,145.659790 
	C524.621460,138.907471 519.268860,134.839340 511.271759,134.984787 
	C503.468628,135.126678 498.641327,139.191132 498.149231,146.569138 
	C507.060822,146.493484 515.934509,147.005325 525.317322,145.659790 
z"/>
<path fill="#000000" opacity="1.000000" stroke="none" 
	d="
M739.642212,239.378082 
	C736.583130,237.114899 734.342529,234.330200 730.819214,232.781769 
	C728.142273,236.175659 728.707947,239.763580 730.167603,243.070435 
	C733.341248,250.260452 738.970703,254.537781 746.755615,255.966919 
	C751.474304,256.833191 754.792908,266.483490 751.701233,270.274475 
	C750.607056,271.616180 748.974182,271.390564 747.517822,271.335876 
	C733.958252,270.826660 724.370850,263.477600 717.364136,252.700409 
	C704.811401,233.392883 714.679932,209.588623 737.112488,204.231644 
	C750.024048,201.148300 765.343018,208.129776 772.954651,220.566360 
	C780.233948,232.459961 778.940674,246.328613 769.741394,257.130463 
	C767.140869,260.183929 765.137390,261.091248 761.668579,257.943390 
	C754.650391,251.574402 747.191528,245.690979 739.642212,239.378082 
M760.757996,237.773895 
	C762.556458,230.773163 759.162781,223.868408 752.339844,220.646408 
	C746.892151,218.073792 741.853760,218.962357 738.481140,223.392654 
	C744.648071,228.585251 750.834778,233.799255 757.027954,239.005554 
	C758.424316,240.179428 759.681702,240.368286 760.757996,237.773895 
z"/>
<path fill="#000000" opacity="1.000000" stroke="none" 
	d="
M614.273682,199.138214 
	C603.163269,197.482346 593.569275,193.874420 586.856689,184.780914 
	C579.161011,174.355774 578.645935,163.206329 584.139648,151.867325 
	C589.932190,139.911682 600.086426,134.209457 613.163696,134.336899 
	C628.837158,134.489655 642.500854,143.609329 647.129089,156.286346 
	C655.095703,178.107071 638.942871,199.482224 614.273682,199.138214 
M614.549255,182.990280 
	C622.925049,182.381500 627.953186,177.945801 629.619385,169.695923 
	C631.243591,161.654114 628.647339,155.456421 622.340454,152.267349 
	C616.402954,149.264999 610.768433,149.756775 605.518738,153.820023 
	C600.749329,157.511475 598.121033,166.370026 600.009094,172.452271 
	C602.084045,179.136169 606.947937,182.303482 614.549255,182.990280 
z"/>
<path fill="#000000" opacity="1.000000" stroke="none" 
	d="
M424.857666,867.047485 
	C417.017487,866.705750 410.142120,864.061890 403.108337,862.095093 
	C398.836273,860.900391 397.585815,862.031311 398.394470,866.369080 
	C399.071716,870.002014 401.514008,872.205750 404.694550,873.580627 
	C410.447601,876.067383 416.417572,877.408569 422.658997,875.718689 
	C426.309357,874.730347 427.662109,876.226257 428.298096,879.702515 
	C430.231476,890.270874 429.779785,890.966492 418.948151,891.256714 
	C409.083984,891.521057 399.697388,889.629150 391.255737,884.337952 
	C381.176514,878.020447 377.108978,868.326294 380.198822,856.849976 
	C383.223816,845.614258 386.942352,834.566772 390.230194,823.399475 
	C391.031464,820.677856 392.424744,819.992493 395.006348,820.879150 
	C397.835632,821.850891 400.707825,822.708496 403.590515,823.511047 
	C406.376282,824.286621 408.910065,825.158569 406.904816,829.742676 
	C417.245697,826.122253 426.006073,827.980652 434.050049,833.012573 
	C445.668610,840.280640 446.747253,855.315674 436.498108,863.308350 
	C433.185638,865.891602 429.269257,866.529724 424.857666,867.047485 
M409.573578,851.875671 
	C412.589905,852.802979 415.545227,853.944153 418.806641,853.782349 
	C421.571625,853.645081 423.720123,852.606934 424.575073,849.882324 
	C425.455383,847.076965 424.775055,844.522644 422.303619,842.795410 
	C418.301849,839.998535 413.944031,838.785156 409.096527,840.386780 
	C405.448242,841.592102 402.721069,844.032532 402.686157,847.830139 
	C402.653015,851.435486 406.696777,850.417908 409.573578,851.875671 
z"/>
<path fill="#000000" opacity="1.000000" stroke="none" 
	d="
M321.926331,781.208557 
	C325.424408,786.187866 327.184937,791.296631 326.082611,797.047791 
	C323.995209,807.938171 313.528107,813.960022 302.922516,810.495178 
	C297.425598,808.699402 292.930359,805.260925 288.427460,801.817139 
	C285.547028,799.614136 282.646210,797.437805 279.792816,795.278442 
	C275.918518,799.853088 275.771973,803.399963 279.191345,807.668579 
	C283.431915,812.962219 289.104004,816.086792 295.676239,817.278137 
	C299.459991,817.963928 300.647064,819.362610 299.847748,823.294250 
	C297.704559,833.836121 297.245758,834.273132 286.899597,830.491333 
	C278.137146,827.288452 270.426727,822.353394 264.600464,815.010864 
	C256.685059,805.035461 256.257721,794.408691 263.668152,784.143188 
	C270.390350,774.830994 277.750214,765.980347 284.770020,756.880737 
	C286.425415,754.734985 288.097107,754.362427 290.237335,756.101135 
	C292.305725,757.781555 294.321045,759.565552 296.559967,760.988953 
	C300.009094,763.181824 301.802734,765.556274 297.697968,769.550354 
	C308.502960,768.729736 315.620056,773.793213 321.926331,781.208557 
M302.583740,795.842773 
	C306.359924,795.841248 308.666046,794.005005 308.663025,790.195679 
	C308.658966,785.112732 304.947723,782.654358 300.947998,780.810059 
	C296.770538,778.883667 292.539581,778.784607 288.945374,782.210815 
	C287.420258,783.664673 286.350037,785.619446 288.570618,787.297546 
	C292.757050,790.460999 296.375366,794.555969 302.583740,795.842773 
z"/>
<path fill="#000000" opacity="1.000000" stroke="none" 
	d="
M161.515503,446.457153 
	C156.369659,440.470978 155.970810,433.747345 157.310913,426.839844 
	C158.322708,421.624603 159.796844,416.490021 161.255203,411.373657 
	C162.204697,408.042450 160.811859,407.065125 157.794952,407.316620 
	C154.336121,407.604980 151.991058,409.534088 150.285461,412.424988 
	C146.588684,418.690948 146.631104,425.499634 147.815979,432.294403 
	C148.344742,435.326569 147.510193,436.502594 144.743668,437.303131 
	C134.026031,440.404358 133.382751,440.037476 132.532852,428.736053 
	C131.884995,420.121155 133.263977,411.791351 136.804626,403.912079 
	C142.406677,391.445435 152.304428,386.183990 165.596344,389.176208 
	C176.630615,391.660156 187.490433,394.914703 198.443909,397.764923 
	C201.614029,398.589844 202.986984,400.168243 201.756012,403.533051 
	C200.958710,405.712433 200.412125,407.994507 199.895416,410.262970 
	C199.156296,413.507812 198.394180,416.625671 193.459244,415.399780 
	C197.065475,425.136810 195.718506,433.837036 191.010559,441.949615 
	C184.362366,453.405579 171.752304,455.343842 161.515503,446.457153 
M175.436707,411.336151 
	C174.821747,411.532227 173.849274,411.548218 173.646088,411.951660 
	C171.082703,417.041321 169.542694,422.469543 169.574295,428.161011 
	C169.587769,430.591644 171.388138,432.361206 173.794067,433.249481 
	C176.346024,434.191681 178.328125,433.201263 180.088593,431.446198 
	C186.366791,425.187164 184.328842,414.777679 175.436707,411.336151 
z"/>
<path fill="#000000" opacity="1.000000" stroke="none" 
	d="
M176.250992,676.166382 
	C181.886642,673.561768 187.280716,671.315979 192.454117,668.643127 
	C199.183197,665.166504 201.159286,660.433655 198.878891,654.380005 
	C196.326431,647.604065 190.149078,643.891174 183.444534,645.845947 
	C173.672409,648.695129 164.580170,653.353027 155.352158,657.570068 
	C151.637726,659.267578 149.928787,658.872925 148.146805,655.039795 
	C142.412704,642.705017 142.273834,642.798584 154.551361,637.364441 
	C167.955490,631.431641 181.409653,625.603088 194.684601,619.392639 
	C198.651962,617.536560 200.430557,618.466125 201.708603,622.266663 
	C202.448471,624.466736 203.394547,626.639648 204.556183,628.646240 
	C206.483170,631.974854 206.609055,634.588501 201.048294,636.118958 
	C208.990021,640.181702 213.635117,645.749573 216.119812,653.130981 
	C220.605865,666.458008 216.443665,677.869019 203.817795,684.223389 
	C193.266006,689.533875 182.277725,693.973999 171.518738,698.878418 
	C169.181366,699.943970 167.711166,699.452332 166.815506,697.086304 
	C166.756638,696.930847 166.683853,696.779846 166.607666,696.631836 
	C159.856430,683.518188 159.856369,683.518188 176.250992,676.166382 
z"/>
<path fill="#000000" opacity="1.000000" stroke="none" 
	d="
M455.006042,849.151672 
	C460.097229,841.819824 467.127563,838.874817 475.372803,838.728943 
	C486.663666,838.529053 496.772552,841.564636 504.443085,850.473389 
	C505.910156,852.177368 507.194519,853.688782 505.046295,856.029236 
	C502.123383,859.213806 499.568024,862.735718 496.414124,865.709351 
	C492.964172,863.988708 492.141815,861.552856 490.507416,859.979675 
	C486.355682,855.983215 481.533234,854.016663 475.923431,855.788391 
	C470.645020,857.455444 469.651459,862.155457 469.087769,866.975159 
	C467.889618,877.220215 466.711334,887.469238 465.330292,897.690369 
	C464.741089,902.051331 466.095886,904.116394 470.697968,904.433167 
	C476.667358,904.844055 482.592682,905.860901 488.550537,906.488098 
	C491.567017,906.805664 492.386414,908.276489 492.063568,911.190369 
	C490.825073,922.369202 490.882843,922.466736 479.516022,921.329041 
	C469.419312,920.318481 459.348938,919.047913 449.260162,917.954529 
	C445.321045,917.527588 443.723663,916.293640 444.375488,911.593018 
	C446.523224,896.104065 447.966187,880.517517 449.687653,864.969299 
	C450.299774,859.440979 451.789490,854.197144 455.006042,849.151672 
z"/>
<path fill="#000000" opacity="1.000000" stroke="none" 
	d="
M180.647369,553.692627 
	C177.801254,555.049133 168.120728,552.269714 167.007675,550.140686 
	C166.168442,548.535339 167.284286,547.222778 167.844803,545.914551 
	C170.606796,539.468140 171.184723,532.729187 170.660568,525.846313 
	C170.548584,524.375977 170.145218,522.896362 169.664902,521.493286 
	C169.029449,519.637085 167.784698,518.346802 165.646057,518.332458 
	C163.351364,518.317078 162.386093,519.914185 161.997482,521.781860 
	C161.321625,525.030212 160.866333,528.325195 160.344269,531.604675 
	C159.769501,535.215271 159.485626,538.895203 158.611069,542.430237 
	C156.766129,549.887756 152.222809,554.853455 144.342453,555.882690 
	C136.828323,556.864075 130.980072,553.699036 126.862198,547.552551 
	C121.520538,539.579407 120.447800,530.509216 121.098900,521.218872 
	C121.434967,516.423523 122.285461,511.649384 124.038582,507.093231 
	C125.004608,504.582672 126.496857,503.680573 129.042633,504.912262 
	C130.240570,505.491882 131.479553,505.990479 132.715332,506.487427 
	C139.132675,509.067963 139.132690,509.063110 137.154205,515.588074 
	C135.429977,521.274536 135.138077,527.038391 136.487503,532.823120 
	C137.030716,535.151794 138.071777,537.430908 140.894135,537.583984 
	C144.028488,537.753906 144.623642,535.205566 145.038208,532.894653 
	C146.034592,527.340637 146.772491,521.739746 147.796204,516.191223 
	C149.993774,504.280151 158.113220,498.030182 168.342850,500.322723 
	C175.558304,501.939697 179.782700,506.934509 182.206772,513.491699 
	C187.170761,526.919556 186.277618,540.241638 180.647369,553.692627 
z"/>
<path fill="#000000" opacity="1.000000" stroke="none" 
	d="
M723.906250,808.280090 
	C717.759949,798.428406 709.114929,795.715027 701.107239,800.912170 
	C697.137756,803.488464 694.471741,807.002563 694.311646,811.915710 
	C694.216125,814.845398 692.801086,816.117065 689.988892,816.195679 
	C688.661072,816.232605 687.332458,816.383911 686.012878,816.551758 
	C677.157410,817.677856 676.031616,816.465393 677.727539,807.585510 
	C680.235596,794.453186 695.307800,782.415405 710.235046,781.622559 
	C724.913513,780.843018 736.360352,788.108582 742.011658,801.791870 
	C746.861145,813.533752 743.513611,827.882996 733.419373,836.879456 
	C725.366943,844.056030 716.319275,849.045532 704.922058,847.330200 
	C703.780273,847.158325 702.632141,846.917725 701.538574,846.553894 
	C695.252625,844.462952 694.954285,843.673950 698.083679,837.825378 
	C698.790039,836.505249 699.576172,835.216919 700.157349,833.842712 
	C701.574585,830.491882 703.372925,829.094849 707.444153,830.346191 
	C713.210938,832.118469 718.328552,829.903992 722.197266,825.395935 
	C726.559448,820.312805 726.865295,814.594788 723.906250,808.280090 
z"/>
<path fill="#000000" opacity="1.000000" stroke="none" 
	d="
M163.089264,335.271606 
	C167.593246,327.474121 173.342560,321.705322 181.986298,319.481628 
	C187.933975,317.951508 189.187485,318.902710 189.321228,324.847229 
	C189.339951,325.679779 189.213272,326.545013 189.395462,327.339722 
	C190.591782,332.558105 189.756027,335.687195 183.487839,337.279572 
	C176.341675,339.095001 172.973007,348.291962 175.386337,355.871857 
	C177.860413,363.642548 188.653580,369.048767 196.605789,366.500549 
	C204.916824,363.837341 209.256500,354.870239 205.903198,346.302979 
	C204.589081,342.945618 205.137939,341.044312 208.090332,339.354492 
	C209.671127,338.449707 211.078629,337.242218 212.564697,336.171875 
	C217.599106,332.545807 218.800385,332.668549 221.210434,338.572174 
	C226.430267,351.358673 222.798630,362.805328 214.701279,373.038391 
	C204.576508,385.833618 188.600327,389.108490 174.853027,381.686462 
	C160.697021,374.043884 154.719574,359.104584 159.654861,343.416687 
	C160.498886,340.733734 161.811646,338.198242 163.089264,335.271606 
z"/>
<path fill="#000000" opacity="1.000000" stroke="none" 
	d="
M304.646393,839.690796 
	C319.533234,827.367310 334.194153,815.339600 348.716980,803.147522 
	C351.578522,800.745117 353.899323,800.784302 357.234863,802.290894 
	C365.504761,806.026306 370.721252,809.878235 368.754272,821.121887 
	C365.819183,837.899475 365.557953,855.144287 364.128723,872.187744 
	C364.061829,872.985352 363.699402,873.758118 363.216583,875.442505 
	C357.525208,873.214417 352.186859,870.761169 347.546539,867.149048 
	C345.757629,865.756470 346.938141,863.079102 347.145966,860.955322 
	C348.306946,849.090759 349.440704,837.223511 350.604218,825.144836 
	C348.133209,824.765747 346.978546,826.407715 345.698517,827.458496 
	C337.085754,834.528442 328.480469,841.610718 320.020477,848.861328 
	C317.662903,850.881958 315.637238,851.460693 312.914062,849.746643 
	C309.419037,847.546692 305.373138,846.276978 302.237915,843.686096 
	C301.734589,841.578735 303.452545,840.995972 304.646393,839.690796 
z"/>
<path fill="#000000" opacity="1.000000" stroke="none" 
	d="
M439.590424,159.450836 
	C441.397156,162.062500 443.004791,164.375336 445.057068,167.327850 
	C447.744690,160.775101 448.274933,154.370224 449.671967,148.204391 
	C451.140839,141.721848 452.406708,135.193253 453.757141,128.683929 
	C454.100891,127.027039 454.427063,125.254021 456.379700,124.814941 
	C461.170319,123.737679 465.990936,122.793533 470.867340,121.781754 
	C472.183929,126.045502 470.641296,129.388458 469.976288,132.705597 
	C466.578003,149.655472 462.893372,166.547791 459.462677,183.491394 
	C458.895355,186.293472 457.830658,187.753098 454.893799,188.475739 
	C440.553162,192.004440 440.578827,192.091415 432.327820,179.851959 
	C423.674042,167.015091 414.991516,154.197495 406.380310,141.332138 
	C405.302887,139.722412 403.710785,138.315033 403.648254,135.591400 
	C408.777954,133.606781 414.361145,133.025024 419.809143,132.035080 
	C421.945099,131.646957 422.796814,133.865540 423.776703,135.346985 
	C429.011871,143.261932 434.192078,151.213257 439.590424,159.450836 
z"/>
<path fill="#000000" opacity="1.000000" stroke="none" 
	d="
M143.481689,488.931824 
	C139.429703,487.959015 137.812393,489.395355 137.754013,493.106812 
	C137.700623,496.501190 135.716217,497.751678 132.465195,497.242645 
	C130.659637,496.959961 128.850098,496.518402 127.038437,496.498016 
	C123.506691,496.458252 122.104866,494.693787 122.874092,491.433655 
	C123.879387,487.172974 121.797096,486.348450 118.131256,486.154175 
	C109.144218,485.677917 109.151215,485.551758 109.660538,476.606384 
	C109.679443,476.274323 109.671448,475.940765 109.690308,475.608704 
	C110.207458,466.504974 110.823425,465.835785 119.754280,467.378174 
	C123.996300,468.110779 126.194611,467.247955 125.903793,462.615021 
	C125.883507,462.291901 126.006485,461.959961 126.061653,461.631897 
	C127.613091,452.407043 128.879257,451.624756 138.204712,453.868164 
	C140.312424,454.375214 141.400833,455.465546 141.257584,457.676208 
	C141.203812,458.505676 141.221817,459.339569 141.177658,460.169891 
	C140.657227,469.960541 140.657349,469.939240 150.717056,470.691437 
	C154.856857,471.001007 158.981369,471.567017 163.124847,471.764648 
	C171.220337,472.150818 173.619568,469.341125 172.361496,461.251312 
	C172.236740,460.449158 172.144958,459.641876 172.024445,458.736053 
	C175.199081,456.483429 178.926147,456.202972 182.380447,455.173553 
	C184.792313,454.454803 185.569870,456.139404 186.327621,457.920105 
	C193.560867,474.918030 180.463669,492.729156 162.282547,490.673004 
	C156.170441,489.981750 150.032043,489.523132 143.481689,488.931824 
z"/>
<path fill="#000000" opacity="1.000000" stroke="none" 
	d="
M809.255676,337.232819 
	C828.583252,326.385406 847.630676,315.788208 866.573669,305.007477 
	C869.960510,303.079987 871.705627,303.516571 873.612854,306.981812 
	C879.670898,317.989044 879.722961,317.794830 868.930603,323.784607 
	C842.745056,338.317749 816.572754,352.877289 790.548828,367.696198 
	C786.375854,370.072418 784.689392,369.239746 782.576294,365.347046 
	C777.159363,355.368408 776.983276,355.431000 786.743469,349.883118 
	C794.120178,345.690002 801.539490,341.571838 809.255676,337.232819 
z"/>
<path fill="#000000" opacity="1.000000" stroke="none" 
	d="
M179.171814,561.106201 
	C187.129761,559.804077 187.207352,559.790100 188.594330,567.479980 
	C190.826050,579.853333 192.510590,577.923462 179.632477,580.240906 
	C157.393402,584.242676 135.129044,588.103821 112.876419,592.030334 
	C106.338524,593.184021 106.340263,593.193909 105.043770,586.843567 
	C102.581177,574.781494 102.576614,574.755981 114.497414,572.626404 
	C135.914917,568.800415 157.338470,565.008301 179.171814,561.106201 
z"/>
<path fill="#000000" opacity="1.000000" stroke="none" 
	d="
M129.430557,607.282104 
	C148.906357,601.923462 168.029037,596.816406 187.056641,591.376770 
	C191.704971,590.047852 193.694809,591.108215 194.683487,595.837891 
	C197.705627,610.295349 200.470459,607.349304 185.802780,611.416931 
	C164.169601,617.416199 142.453400,623.117310 120.841026,629.189148 
	C116.633125,630.371460 114.518044,629.583984 113.941811,625.204285 
	C113.790977,624.057861 113.439857,622.933472 113.130722,621.812744 
	C110.016533,610.522461 109.490547,612.813354 119.876175,609.832886 
	C122.913116,608.961304 125.986015,608.215027 129.430557,607.282104 
z"/>
<path fill="#000000" opacity="1.000000" stroke="none" 
	d="
M556.297241,134.454102 
	C557.688965,124.476494 559.093933,114.948227 560.250549,105.389915 
	C560.721802,101.496353 562.559937,100.384727 566.270630,100.990311 
	C582.212891,103.592079 579.819946,100.770920 577.674316,116.566864 
	C574.682251,138.594360 571.386353,160.580978 568.473999,182.618591 
	C567.938538,186.670776 566.227417,187.688690 562.589966,187.085052 
	C545.943970,184.322647 549.483582,186.595062 551.194641,171.870102 
	C552.630127,159.516373 554.521118,147.215576 556.297241,134.454102 
z"/>
<path fill="#000000" opacity="1.000000" stroke="none" 
	d="
M788.938599,252.925293 
	C791.615784,250.647079 794.027100,248.602203 796.407471,246.521896 
	C798.309021,244.860123 799.950684,245.107376 801.516663,247.019760 
	C803.203125,249.079132 804.850098,251.188904 806.711914,253.082336 
	C809.541321,255.959763 811.709900,258.724762 806.365967,262.118622 
	C812.350952,263.550629 817.180481,265.468994 821.236755,269.144867 
	C824.159546,271.793457 825.164490,274.007751 821.374207,276.597717 
	C820.557617,277.155670 819.891235,277.931976 819.149231,278.600616 
	C813.044434,284.102020 813.044006,284.101562 806.964783,278.951263 
	C801.080994,273.966583 794.591125,273.702820 788.336426,278.702118 
	C781.450195,284.206268 774.685730,289.886017 768.169983,295.820618 
	C765.021362,298.688416 762.900269,298.517761 760.540283,295.207428 
	C759.287842,293.450592 757.797729,291.862366 756.403992,290.207214 
	C751.938721,284.904724 751.924072,284.891724 757.301270,280.237061 
	C767.745667,271.196167 778.205811,262.173523 788.938599,252.925293 
z"/>
<path fill="#000000" opacity="1.000000" stroke="none" 
	d="
M533.323853,840.963623 
	C541.318542,838.834290 547.253784,842.121948 548.980164,849.289978 
	C550.509583,855.640137 546.094177,861.857361 539.229065,863.020142 
	C532.978821,864.078857 527.040100,859.521057 526.280884,852.828735 
	C525.665833,847.406555 528.288147,843.622314 533.323853,840.963623 
z"/>
</svg>